<svg xmlns="http://www.w3.org/2000/svg" viewBox="0 0 500 500"><g id="freepik--background-complete--inject-38"><path d="M106.14,317.85a37,37,0,1,1,37-37A37,37,0,0,1,106.14,317.85Zm0-72.28a35.32,35.32,0,1,0,35.31,35.32A35.36,35.36,0,0,0,106.14,245.57Z" style="fill:#ebebeb"></path><path d="M104.28,323.08c-.56,0-1.12-.06-1.68-.1l.14-1.64c.53,0,1.07.08,1.61.1Zm5.88-.15L110,321.3c.54-.05,1.07-.12,1.61-.19l.22,1.63C111.28,322.82,110.73,322.88,110.16,322.93Zm-13.38-.85c-.55-.12-1.09-.26-1.64-.4l.43-1.59c.52.14,1.05.27,1.57.39Zm20.83-.53-.45-1.59c.52-.14,1-.3,1.55-.47l.51,1.57Zm-28-1.8c-.52-.22-1-.45-1.54-.69l.7-1.49c.49.24,1,.46,1.48.67Zm35.09-.9-.72-1.48c.49-.24,1-.48,1.44-.74l.78,1.45C125.68,318.34,125.18,318.6,124.67,318.85Zm-41.76-2.68c-.47-.31-.94-.63-1.39-1l1-1.34c.43.32.88.63,1.33.92Zm48.23-1.24-1-1.33,1.28-1,1,1.28C132,314.25,131.59,314.6,131.14,314.93ZM77,311.45c-.41-.39-.81-.78-1.2-1.19L77,309.12c.38.39.76.77,1.15,1.14Zm59.82-1.53-1.19-1.13c.37-.39.73-.79,1.09-1.2l1.23,1.08C137.57,309.1,137.2,309.51,136.81,309.92ZM72,305.76c-.33-.45-.65-.91-1-1.38l1.37-.91c.3.44.61.89.93,1.32ZM141.5,304l-1.37-.9c.29-.45.58-.91.86-1.37l1.41.84C142.11,303,141.81,303.51,141.5,304Zm-73.39-4.7c-.25-.51-.48-1-.71-1.53l1.51-.66c.22.5.44,1,.67,1.47Zm77-2-1.51-.64c.21-.5.41-1,.6-1.51l1.54.58C145.49,296.26,145.28,296.78,145.06,297.3Zm-79.63-5.1c-.15-.54-.28-1.08-.41-1.63l1.6-.38c.12.53.25,1.05.4,1.57Zm81.93-2.12-1.6-.36c.12-.52.22-1.05.32-1.58l1.62.29C147.6,289,147.49,289.53,147.36,290.08Zm-83.28-5.32q-.08-.84-.12-1.68L65.6,283q0,.81.12,1.62Zm84.25-2.19-1.64-.06q0-.81,0-1.62v-.17h1.65v.16C148.37,281.46,148.36,282,148.33,282.57ZM65.7,277.33l-1.64-.14c0-.56.11-1.12.18-1.67l1.63.2C65.81,276.26,65.75,276.79,65.7,277.33Zm80.61-2.25c-.08-.53-.16-1.07-.26-1.59l1.62-.3c.1.55.19,1.1.27,1.66ZM67,270.17l-1.59-.43q.23-.81.48-1.62l1.57.5C67.27,269.13,67.12,269.65,67,270.17ZM144.64,268c-.18-.52-.36-1-.55-1.53l1.54-.58c.2.52.39,1.05.57,1.58Zm-75.12-4.65L68,262.65c.24-.51.49-1,.76-1.51l1.45.77C70,262.39,69.75,262.87,69.52,263.36Zm72.2-2c-.26-.47-.53-.94-.81-1.4l1.41-.85c.29.48.57,1,.84,1.46Zm-68.48-4.24-1.33-1c.33-.45.67-.9,1-1.34l1.29,1C73.89,256.24,73.56,256.67,73.24,257.11Zm64.42-1.79q-.51-.63-1-1.23l1.24-1.09c.37.42.73.85,1.08,1.28ZM78,251.62l-1.14-1.19c.41-.39.82-.77,1.24-1.14l1.09,1.23C78.81,250.88,78.41,251.24,78,251.62Zm54.57-1.51c-.41-.36-.83-.7-1.25-1l1-1.29c.44.35.87.7,1.3,1.07Zm-48.9-3-.91-1.37,1.42-.91.86,1.41C84.6,246.48,84.14,246.77,83.69,247.07Zm43-1.2-1.41-.79.77-1.45c.5.27,1,.54,1.47.83ZM90.08,243.6l-.65-1.51c.51-.22,1-.43,1.55-.63l.6,1.53C91.07,243.19,90.57,243.39,90.08,243.6Zm30-.83c-.51-.19-1-.36-1.54-.53l.51-1.57c.53.18,1.07.36,1.59.55ZM97,241.34l-.37-1.6c.54-.13,1.09-.24,1.65-.35l.3,1.62C98,241.11,97.51,241.22,97,241.34Zm16.07-.45c-.53-.09-1.06-.17-1.6-.24l.21-1.63c.56.07,1.12.16,1.67.25Zm-8.87-.54-.08-1.64c.56,0,1.12,0,1.69-.05v1.65C105.27,240.31,104.73,240.32,104.19,240.35Z" style="fill:#ebebeb"></path><polygon points="100.47 303.75 111.86 303.75 111.86 286.57 129.04 286.57 129.04 275.18 111.86 275.18 111.86 258 100.47 258 100.47 275.18 83.29 275.18 83.29 286.57 100.47 286.57 100.47 303.75" style="fill:#ebebeb"></polygon><path d="M416.83,129.39a71.81,71.81,0,0,1-23.06,20,71.76,71.76,0,0,1-23-20c-8.12-10.74-7.72-27.56,3.89-31.2,12.84-4,19.15,15.31,19.15,15.31s6.4-19.45,19.16-15.31C424.5,102,424.94,118.65,416.83,129.39Z" style="fill:#ebebeb"></path><polygon points="384.72 140.9 381.22 126.33 378.93 131.47 364.8 131.47 364.8 129.82 377.87 129.82 381.68 121.23 384.41 132.59 388.27 109.05 391.68 127.67 394.37 119.9 398.61 132.63 399.55 129.82 422.77 129.82 422.77 131.46 400.74 131.46 398.61 137.82 394.34 125.01 391.18 134.13 388.36 118.68 384.72 140.9" style="fill:#fff"></polygon><path d="M393.81,156.3a37,37,0,1,1,37-37A37,37,0,0,1,393.81,156.3Zm0-72.28a35.32,35.32,0,1,0,35.32,35.32A35.35,35.35,0,0,0,393.81,84Z" style="fill:#ebebeb"></path><path d="M392,161.53c-.56,0-1.12-.06-1.68-.11l.14-1.64c.53.05,1.07.08,1.62.11Zm5.89-.15-.16-1.64c.54-.05,1.08-.11,1.61-.18l.22,1.63C399,161.26,398.4,161.33,397.84,161.38Zm-13.39-.85c-.55-.12-1.09-.26-1.63-.4l.42-1.59c.52.14,1.05.27,1.58.39Zm20.83-.54-.45-1.58c.52-.15,1-.3,1.55-.47l.51,1.57C406.36,159.68,405.82,159.84,405.28,160Zm-28-1.79c-.52-.22-1-.45-1.54-.69l.7-1.49,1.48.67Zm35.1-.91-.72-1.48c.48-.23,1-.48,1.43-.73l.78,1.44C413.35,156.79,412.85,157.05,412.35,157.29Zm-41.77-2.68c-.47-.31-.93-.63-1.39-1l1-1.34c.44.32.88.62,1.33.92Zm48.23-1.24-1-1.32c.44-.32.86-.65,1.28-1l1,1.29C419.71,152.7,419.27,153,418.81,153.37Zm-54.15-3.47c-.41-.39-.81-.79-1.2-1.19l1.19-1.14q.56.57,1.14,1.14Zm59.82-1.53-1.19-1.14c.37-.39.73-.79,1.09-1.19l1.24,1.08C425.25,147.54,424.87,148,424.48,148.37Zm-64.81-4.16c-.33-.46-.65-.91-1-1.38l1.36-.92c.3.45.61.89.93,1.33Zm69.51-1.78-1.38-.9c.29-.46.58-.91.86-1.38l1.41.85C429.78,141.48,429.48,142,429.18,142.43Zm-73.4-4.71c-.25-.5-.48-1-.7-1.52l1.5-.66c.22.49.44,1,.68,1.47Zm77-2-1.51-.64c.21-.49.41-1,.6-1.5l1.54.58C433.16,134.7,433,135.23,432.73,135.74Zm-79.62-5.09c-.15-.54-.29-1.09-.42-1.63l1.6-.38c.12.53.26,1.05.4,1.57ZM435,128.53l-1.61-.36c.12-.53.23-1.06.32-1.59l1.62.29C435.27,127.43,435.16,128,435,128.53Zm-83.29-5.33q-.08-.83-.12-1.68l1.64-.08c0,.54.07,1.08.12,1.61ZM436,121l-1.65-.06c0-.54,0-1.08,0-1.62v-.17H436v.16C436,119.9,436,120.46,436,121Zm-82.64-5.24-1.63-.14c0-.56.1-1.12.17-1.68l1.64.21C353.48,114.7,353.42,115.24,353.37,115.78ZM434,113.53c-.07-.54-.16-1.07-.26-1.6l1.62-.3c.1.55.19,1.11.27,1.66Zm-79.33-4.91-1.59-.43c.15-.55.31-1.08.48-1.62l1.57.5C355,107.58,354.79,108.1,354.65,108.62Zm77.66-2.17c-.17-.51-.36-1-.55-1.52l1.54-.59q.3.8.57,1.59Zm-75.12-4.65-1.48-.71c.24-.51.5-1,.76-1.5l1.45.77C357.67,100.83,357.43,101.32,357.19,101.8Zm72.2-2c-.26-.48-.53-.94-.81-1.4l1.41-.85c.29.47.57,1,.84,1.45Zm-68.47-4.25-1.34-1q.5-.69,1-1.35l1.29,1C361.56,94.68,361.23,95.12,360.92,95.55Zm64.41-1.78c-.34-.42-.69-.83-1.05-1.24l1.24-1.08c.37.42.73.84,1.08,1.28Zm-59.64-3.71-1.14-1.18c.41-.39.82-.77,1.24-1.14L366.88,89C366.48,89.33,366.08,89.69,365.69,90.06Zm54.57-1.51c-.41-.35-.83-.69-1.25-1l1-1.29c.44.35.87.71,1.3,1.08Zm-48.89-3-.92-1.36c.47-.32.94-.62,1.42-.91l.86,1.41C372.27,84.93,371.81,85.22,371.37,85.51Zm43-1.19c-.46-.27-.93-.54-1.41-.79l.77-1.45c.5.26,1,.54,1.47.82Zm-36.59-2.27-.65-1.51q.76-.33,1.56-.63l.59,1.53C378.74,81.63,378.25,81.84,377.75,82.05Zm30-.84c-.51-.18-1-.36-1.53-.52l.5-1.57c.54.17,1.07.35,1.6.55Zm-23.1-1.42-.37-1.61c.54-.12,1.09-.24,1.65-.34l.3,1.61C385.71,79.55,385.18,79.67,384.66,79.79Zm16.07-.45c-.53-.09-1.06-.17-1.6-.24l.21-1.63c.56.07,1.12.15,1.67.25Zm-8.87-.54-.07-1.65c.55,0,1.11,0,1.68,0v1.64C392.94,78.76,392.4,78.77,391.86,78.8Z" style="fill:#ebebeb"></path><circle cx="102.54" cy="101.8" r="46.54" transform="translate(-22.79 173.71) rotate(-74.64)" style="fill:#ebebeb"></circle><circle cx="104.67" cy="102.84" r="44.41" transform="translate(-31.08 47.13) rotate(-22.18)" style="fill:#dbdbdb"></circle><circle cx="104.67" cy="102.84" r="41.6" style="fill:#fff"></circle><path d="M145.34,94c-19,11.48-50.09,30.31-67.49,40.63a41.68,41.68,0,0,1-11.37-15.28L124,66A41.65,41.65,0,0,1,145.34,94Z" style="fill:#ebebeb;opacity:0.5"></path><path d="M146.25,104.29a41.22,41.22,0,0,1-2.75,13.52L91.61,142.35a40.5,40.5,0,0,1-6.55-2.81C100.73,130.48,129.37,114,146.25,104.29Z" style="fill:#ebebeb;opacity:0.5"></path><rect x="104.27" y="64.26" width="0.8" height="6.31" style="fill:#c7c7c7"></rect><rect x="86.56" y="69" width="0.8" height="6.31" transform="translate(-24.43 53.14) rotate(-30)" style="fill:#c7c7c7"></rect><rect x="73.59" y="81.97" width="0.8" height="6.31" transform="translate(-36.73 106.63) rotate(-60)" style="fill:#c7c7c7"></rect><rect x="66.09" y="102.44" width="6.31" height="0.8" style="fill:#c7c7c7"></rect><rect x="70.84" y="120.15" width="6.31" height="0.8" transform="translate(-50.37 53.15) rotate(-30)" style="fill:#c7c7c7"></rect><rect x="83.81" y="133.12" width="6.31" height="0.8" transform="translate(-72.15 142.18) rotate(-60.04)" style="fill:#c7c7c7"></rect><rect x="104.27" y="135.12" width="0.8" height="6.31" style="fill:#c7c7c7"></rect><rect x="121.99" y="130.37" width="0.8" height="6.31" transform="translate(-50.37 79.08) rotate(-30)" style="fill:#c7c7c7"></rect><rect x="134.96" y="117.4" width="0.8" height="6.31" transform="matrix(0.5, -0.87, 0.87, 0.5, -36.73, 177.5)" style="fill:#c7c7c7"></rect><rect x="136.95" y="102.44" width="6.31" height="0.8" style="fill:#c7c7c7"></rect><rect x="132.21" y="84.72" width="6.31" height="0.8" transform="translate(-24.43 79.1) rotate(-30)" style="fill:#c7c7c7"></rect><rect x="119.24" y="71.75" width="6.31" height="0.8" transform="translate(-1.27 142.12) rotate(-60.02)" style="fill:#c7c7c7"></rect><polygon points="105.28 67.11 106.65 105.65 102.7 105.6 104.21 67.1 105.28 67.11" style="fill:#c7c7c7"></polygon><polygon points="129.28 89.4 103.36 105.95 101.47 102.48 128.77 88.46 129.28 89.4" style="fill:#a6a6a6"></polygon><path d="M106,102.84a1.35,1.35,0,1,1-1.35-1.35A1.35,1.35,0,0,1,106,102.84Z" style="fill:#c7c7c7"></path><path d="M82.59,327.06l-13.12.27-6.66.12c-2.23,0-4.47,0-6.7.05h-.44v-.44l-.06-11.19v-.51h.5l13.24.06c4.42,0,8.83.11,13.24.16h.28v.27c0,1.89-.09,3.78-.13,5.65Zm0,0-.14-5.66c0-1.86-.11-3.7-.13-5.53l.27.27c-4.41.05-8.82.16-13.24.16l-13.24.07.5-.5,0,11.19-.45-.45c2.18,0,4.36,0,6.55.05l6.58.12Z" style="fill:#ebebeb"></path><path d="M67.82,341.17l-13.12.27-6.66.12c-2.23,0-4.47,0-6.7.05H40.9v-.44L40.84,330v-.51h.5l13.24.06c4.41,0,8.83.11,13.24.16h.28V330c0,1.89-.08,3.78-.13,5.65Zm0,0-.14-5.66c-.05-1.86-.11-3.7-.13-5.53l.27.27c-4.41.05-8.83.16-13.24.16l-13.24.06.5-.49-.05,11.19-.45-.45c2.18,0,4.36,0,6.55,0l6.58.12Z" style="fill:#ebebeb"></path><path d="M338.6,202.49l-13.13.28-6.66.11c-2.22.05-4.46,0-6.69.06h-.44v-.45l-.05-11.19v-.5h.5l13.24.07c4.41,0,8.83.11,13.24.16h.28v.27c0,1.9-.08,3.79-.13,5.66Zm0,0-.14-5.65c0-1.86-.11-3.71-.13-5.54l.27.28c-4.41,0-8.83.15-13.24.16l-13.24.06.5-.5-.06,11.19-.44-.44c2.18,0,4.36,0,6.54,0l6.58.11Z" style="fill:#ebebeb"></path><path d="M323.83,216.6l-13.13.28L304,217c-2.22,0-4.46,0-6.69.06h-.45v-.45l0-11.19v-.5h.5l13.24.07c4.41,0,8.82.11,13.24.16h.27v.27c0,1.9-.09,3.79-.13,5.66Zm0,0-.14-5.65c-.05-1.86-.12-3.71-.14-5.54l.28.28c-4.42.05-8.83.15-13.24.16l-13.24.06.5-.5-.06,11.19-.44-.44c2.18,0,4.36,0,6.54.05l6.58.11Z" style="fill:#ebebeb"></path><path d="M309.11,202.49l-13.12.28-6.66.11c-2.23.05-4.46,0-6.7.06h-.44v-.45l-.06-11.19v-.5h.5l13.24.07c4.42,0,8.83.11,13.24.16h.28v.27c0,1.9-.09,3.79-.13,5.66Zm0,0-.14-5.65c0-1.86-.11-3.71-.13-5.54l.27.28c-4.41,0-8.82.15-13.24.16l-13.24.06.5-.5-.05,11.19-.45-.44c2.19,0,4.36,0,6.55,0l6.58.11Z" style="fill:#ebebeb"></path><path d="M458.66,341.17l-13.13.27-6.66.12c-2.22,0-4.46,0-6.69.05h-.45v-.44L431.68,330v-.51h.5l13.24.06c4.41,0,8.83.11,13.24.16h.27V330c0,1.89-.08,3.78-.13,5.65Zm0,0-.14-5.66c0-1.86-.12-3.7-.13-5.53l.27.27c-4.41.05-8.83.16-13.24.16l-13.24.06.5-.49-.06,11.19-.44-.45c2.18,0,4.36,0,6.54,0l6.58.12Z" style="fill:#ebebeb"></path><path d="M443.89,67.49l-13.13.27-6.66.12c-2.22,0-4.46,0-6.69.05H417v-.45l0-11.19v-.51h.51l13.24.06c4.41,0,8.82.11,13.24.16h.27v.27c0,1.9-.09,3.78-.13,5.65Zm0,0-.14-5.66c-.05-1.86-.12-3.7-.14-5.53l.28.27c-4.42,0-8.83.16-13.24.16l-13.24.07.5-.5-.06,11.19-.44-.45c2.18,0,4.35,0,6.54.06l6.58.11Z" style="fill:#ebebeb"></path><path d="M458.66,81.6l-13.13.27-6.66.12c-2.22,0-4.46,0-6.69.05h-.45V81.6l-.05-11.19V69.9h.5l13.24.06c4.41,0,8.83.11,13.24.16h.27v.27c0,1.89-.08,3.78-.13,5.65Zm0,0-.14-5.66c0-1.86-.12-3.7-.13-5.53l.27.27c-4.41,0-8.83.16-13.24.16l-13.24.07.5-.5-.06,11.19-.44-.45c2.18,0,4.36,0,6.54.06l6.58.11Z" style="fill:#ebebeb"></path><path d="M82.59,67.49l-13.12.27-6.66.12c-2.23,0-4.47,0-6.7.05h-.44v-.45L55.61,56.3v-.51h.5l13.24.06c4.42,0,8.83.11,13.24.16h.28v.27c0,1.9-.09,3.78-.13,5.65Zm0,0-.14-5.66c0-1.86-.11-3.7-.13-5.53l.27.27c-4.41,0-8.82.16-13.24.16l-13.24.07.5-.5,0,11.19L56.11,67c2.18,0,4.36,0,6.55.06l6.58.11Z" style="fill:#ebebeb"></path></g><g id="freepik--Shadow--inject-38"><ellipse cx="250" cy="435.11" rx="198.01" ry="22.92" style="fill:#ebebeb"></ellipse></g><g id="freepik--Icons--inject-38"><path d="M109.62,220.22H97V206.65H83.46V194.07H97V180.49h12.58v13.58h13.57v12.58H109.62Zm-10.79-1.79h9V204.86H121.4v-9H107.83V182.28h-9v13.58H85.25v9H98.83Z" style="fill:#B0BEC5"></path><path d="M414.65,309.92H402.06V296.35H388.49V283.77h13.57V270.19h12.59v13.58h13.57v12.58H414.65Zm-10.79-1.79h9V294.56h13.57v-9H412.86V272h-9v13.58H390.28v9h13.58Z" style="fill:#B0BEC5"></path><polygon points="348.54 78.59 348.54 91.17 334.97 91.17 334.97 104.75 322.39 104.75 322.39 91.17 308.81 91.17 308.81 78.59 322.39 78.59 322.39 65.02 334.97 65.02 334.97 78.59 348.54 78.59" style="fill:#B0BEC5"></polygon></g><g id="freepik--Character--inject-38"><path d="M227.11,81.18c2.61-.08,13.54-3.15,22.58,5.78,8.56,8.45,15.69,37.19,18.2,43.3S278.89,136,282,143c2.7,6.07-1.54,9.14-1.28,13.86.21,3.67,4.71,8.5,2.27,14.36-2.21,5.33-7.64,5.15-10.58,7.18s-3.74,9.7-9.31,12.63-11.62-1.61-14.74-1.08-5.29,10.7-15.61,11.49-14.64-7.36-19.12-8.39-14.57,3.6-20.23-.89-7.61-11.37-10.2-13.6-7.06-1.1-10.71-6.65,1.29-10.23,1.25-15.54c0-3.7-3.77-6.51-2.4-12.39,1.89-8.08,11.43-7.94,13.73-16.3,1.8-6.55,3.29-34,18.3-43.15C213.77,78.28,227.11,81.18,227.11,81.18Z" style="fill:#263238"></path><path d="M267.34,128.78a9.19,9.19,0,0,0,3.27,3l3.77,2.33a27.64,27.64,0,0,1,6.86,5.27,8.87,8.87,0,0,1,2.22,7.57,13.64,13.64,0,0,1-1.57,3.88,15.94,15.94,0,0,0-1.89,4.27,7.53,7.53,0,0,0,1.18,4.72c.69,1.34,1.43,2.6,2.05,3.9,1.25,2.56,1.92,5.39,1,8a6.06,6.06,0,0,1-2.35,3.19,11,11,0,0,1-3.92,1.53c-1.42.33-2.88.52-4.35.77a7.48,7.48,0,0,0-4.09,1.65,7.84,7.84,0,0,1,4.15-1.2c1.47-.13,2.95-.19,4.44-.41a11.82,11.82,0,0,0,4.35-1.44,7.28,7.28,0,0,0,3-3.65c1.27-3,.41-6.42-.85-9.11-.62-1.38-1.36-2.69-2-4a6.12,6.12,0,0,1-1-3.7c.5-2.46,2.79-5,3.31-8.14a9.94,9.94,0,0,0-2.77-8.74,28.45,28.45,0,0,0-7.41-5.11l-4-2A9.93,9.93,0,0,1,267.34,128.78Z" style="fill:#263238"></path><path d="M191,101.93c-2.06,4.91-3,10.18-4.42,15.24-.72,2.53-1.35,5.09-2.25,7.53a17.3,17.3,0,0,1-1.59,3.42,2.57,2.57,0,0,1-.51.67,3,3,0,0,1-.63.57c-.5.38-1,.73-1.59,1.07a79.73,79.73,0,0,0-6.64,4.48,13.54,13.54,0,0,0-4.82,6.67,8.45,8.45,0,0,0-.16,4.21,10.94,10.94,0,0,0,1.82,3.7c1.59,2.13,3.11,4.27,3.61,6.92-.1-2.7-1.58-5.14-2.92-7.37a10.18,10.18,0,0,1-1.46-3.47,7.2,7.2,0,0,1,.36-3.61,13.06,13.06,0,0,1,4.53-5.85,77.07,77.07,0,0,1,6.6-4.26c.56-.37,1.12-.75,1.67-1.18A5.59,5.59,0,0,0,184,129a18.58,18.58,0,0,0,1.69-3.78,64.52,64.52,0,0,0,2.06-7.74l1.52-7.8A67.8,67.8,0,0,1,191,101.93Z" style="fill:#263238"></path><path d="M180.46,177.22c1.35,1.32,1.81,3.25,2.52,5s1.37,3.54,2.15,5.29a27.45,27.45,0,0,0,2.82,5.07,12.55,12.55,0,0,0,4.47,4c3.93,1.71,8.11.76,11.66-.49,1.81-.64,3.55-1.37,5.33-2a11.83,11.83,0,0,1,5.48-.86,11,11,0,0,0-5.71.06c-1.87.44-3.67,1-5.49,1.52-3.54,1-7.4,1.63-10.55.2a11.36,11.36,0,0,1-3.91-3.46,34.33,34.33,0,0,1-2.94-4.69c-.9-1.65-1.71-3.35-2.56-5-.44-.85-.89-1.69-1.38-2.51A5.67,5.67,0,0,0,180.46,177.22Z" style="fill:#263238"></path><polygon points="278.65 406.09 192.03 406.09 186.88 298.95 264.28 298.95 278.65 406.09" style="fill:#37474f"></polygon><polygon points="240.04 298.95 230.89 371.51 230.88 371.62 230.68 373.13 230.31 376.1 229.89 379.41 229.74 380.59 229.62 381.54 226.53 406.09 192.03 406.09 186.88 298.95 240.04 298.95" style="fill:#263238"></polygon><path d="M261.06,406.09h-2.29c-.12-.95-.23-1.89-.35-2.84-3.08-25-6.07-50-8.67-75-.24-2.29-.48-4.59-.71-6.88,0-.36.58-.43.63-.07.21,1.54.43,3.08.63,4.62C254,352.62,257.52,379.36,261.06,406.09Z" style="fill:#263238"></path><path d="M256.42,298.87a.32.32,0,0,1,0,.08c-.23,1.07-2.76,12.81-6.1,27-.18.77-.36,1.55-.55,2.33-1.48,6.19-3.09,12.74-4.72,19-3.52,13.59-7.13,25.77-9.59,29.78a3.93,3.93,0,0,1-1.09,1.27c-.8.47-2.5,1.31-4.61,2.3l-1.4.65-1.2.55c-4.8,2.2-10.57,4.72-13.24,5.83l0,0v.21l-.93,18.24H131.4l8.64-52,10.43-55.19Z" style="fill:#37474f"></path><path d="M241.42,374.76A174.54,174.54,0,0,0,214,387.53a.31.31,0,0,0,.26.56c9.23-4,18.65-7.76,27.65-12.23A.6.6,0,0,0,241.42,374.76Z" style="fill:#263238"></path><path d="M244.2,311.52c0-.32-.58-.39-.58,0,.07,11-.63,20.6-1.55,30.85-.43,4.75-4.25,31-12.5,29.12-1.38-.32-2.09-1.68-2.3-3.76-.26-2.51.68-5.57,1.09-8.06.92-5.5,1.65-11,2.12-16.58a150.26,150.26,0,0,0-.33-31.09.27.27,0,0,0-.53,0c0,14.36-.37,28.69-2.51,42.92-1,6.83-4.48,17.12,2.67,18.18s12-16.17,12.88-20.89C245.14,339,245.24,324.84,244.2,311.52Z" style="fill:#263238"></path><path d="M229.79,372.16a43.6,43.6,0,0,0-1.86,5.44,12.61,12.61,0,0,0-.77,4.48c0,.29.42.32.57.12a15.59,15.59,0,0,0,1.92-4.35c.63-1.69,1.29-3.36,1.87-5.06A.92.92,0,0,0,229.79,372.16Z" style="fill:#263238"></path><path d="M168.76,377.62c-.82,9.5-1.79,19-2.81,28.47h-.89c1-9.5,2.14-19,3.37-28.48C168.46,377.4,168.78,377.4,168.76,377.62Z" style="fill:#263238"></path><path d="M224.75,203.06c7.47,24.36,39.8,111.37,61.48,124.63,14.19,8.67,85.46,13.6,99.17,7.24,7.61-3.54,5.24-61.1-3.73-61.42-11.19-.4-66.2-1.88-72.29-4.79s-47.18-57.86-62.84-74.51C219.55,165.49,219.77,186.84,224.75,203.06Z" style="fill:#ad6359"></path><path d="M364.62,269.19l-10.16,70.4s-57.88,1.7-73.66-11.21C258.31,310,226.06,217,222.4,202.45c-8.67-34.5,10.65-28.74,25.85-12,9.87,10.9,48.7,66.66,63.08,76.93C315.41,270.33,364.62,269.19,364.62,269.19Z" style="fill:#ebebeb"></path><path d="M340.2,336.14c1.19-10.45,7.62-53,9.63-62.13.14-.63.58-.7.52,0-2.81,31.39-8,52-9.73,62.18C340.57,336.43,340.17,336.41,340.2,336.14Z" style="fill:#263238"></path><path d="M264.31,272.81l9.67,66.5s-108.38,1.6-135.29-.29c0,0,21.95-124.33,50.88-155.75,14.47-15.71,31.46-14.53,42.29-3.55,2.74,2.78,35.43,46,38.87,62.49C273.73,256.77,264.31,272.81,264.31,272.81Z" style="fill:#B0BEC5"></path><path d="M222.08,265.39a118.64,118.64,0,0,1,17.38-.29c2.87.21,5.72.54,8.57.94,1.42.2,2.85.35,4.27.49a18.31,18.31,0,0,0,4.5,0c.13,0,.16.18,0,.21a33.1,33.1,0,0,1-4.2.68,29.82,29.82,0,0,1-4.12,0c-2.92-.18-5.83-.49-8.75-.7-5.88-.42-11.76-.85-17.66-.84C221.82,265.88,221.81,265.42,222.08,265.39Z" style="fill:#263238"></path><path d="M209,273a128.56,128.56,0,0,1,14-3.24c2.36-.4,4.73-.66,7.12-.86,1.13-.09,2.28-.17,3.42-.23s2.52,0,3.77,0c.13,0,.17.19,0,.21-1.18.11-2.35.42-3.52.61l-3.54.54c-2.35.37-4.7.77-7.07,1.12-4.72.69-9.42,1.43-14.12,2.29C208.76,273.41,208.72,273.05,209,273Z" style="fill:#263238"></path><path d="M208.38,406.09H122.87c10-62.82,22-127.16,33.55-159.54,24.86-69.81,45.15-72.48,45.15-72.48v.08c.11,2.95,3,82.08,5.22,165.77C207.39,362.1,207.94,384.6,208.38,406.09Z" style="fill:#ebebeb"></path><path d="M194.26,368.6c0-2.44-.54-14-.76-16.33h0c0-.27-.1-.81-.32-.81-3.19,0-14.26,1.13-25.41,1.13a202.35,202.35,0,0,1-23.83-1.86c-.37.11-.37,12.81-.57,18.95-.4,12.81.19,27.3,2.92,30,5.1,5,18.69,4.57,23,4.53s19.5-.05,23.07-7.89C193.88,392.81,194.3,374.93,194.26,368.6Zm-2,13c-.18,6.32-.38,12-2.81,15.33-2.08,2.81-7.95,5.64-21.46,5.63-9.76,0-18-1.79-20.25-4.39-2.7-3.11-3-12.05-3-17.39,0-7.37,0-13.26,0-20.62,18.87,4.38,39.63,2.22,47.5.63C192.27,361.1,192.44,376.65,192.29,381.6Zm.05-22c-24.51,3.15-39.68.52-47.54-1,0-2.36,0-4.2,0-6.57,3.37.85,14.71,2.2,23.21,2.2,7.91,0,19.53-1.1,24.46-1.69C192.3,354.48,192.4,358.7,192.34,359.59Z" style="fill:#dbdbdb"></path><path d="M199,206.89c-4.81,19.91-29.55,90.73-35.7,96.87-7.33,7.32-39.29,29.83-50.43-.14-7.72-20.75,44.74-93.49,69.53-117C194.5,175.21,207.05,173.53,199,206.89Z" style="fill:#ebebeb"></path><path d="M190.54,243.17c-1.5,2.77-3.15,5.46-4.77,8.16.38-1,.75-2,1.11-3,1.56-4.31,3-8.67,4.59-13,.06-.14-.16-.19-.22-.06-1.67,3.75-3.44,7.47-5.07,11.25s-3,7.42-4.48,11.17c-2.91,7.55-5.86,15.09-8.56,22.72a125.07,125.07,0,0,0-4.1,12.88c0,.12.15.21.21.09,1.79-3.61,3.2-7.41,4.64-11.17s2.88-7.48,4.28-11.24,2.89-7.65,4.37-11.46c.74-1.92,1.51-3.82,2.26-5.73a60,60,0,0,0,5.83-10.62C190.65,243.16,190.56,243.12,190.54,243.17Z" style="fill:#263238"></path><path d="M200.67,174.16q-4,8.44-7.76,17c-2.5,5.7-5.08,11.36-7.5,17.1l-.3.72.65.44,10.49,7.09L196,215c-2.85,4.26-5.61,8.57-8.39,12.87l-.27.42.15.46c2.81,8.71,5.52,17.45,8.47,26.12s5.84,17.35,8.94,26q-3.57-13.28-7.48-26.43c-2.52-8.8-5.28-17.52-7.94-26.28l-.12.88c2.82-4.27,5.66-8.53,8.42-12.85l.57-.9-.87-.57-10.62-6.9.36,1.16c2.38-5.75,4.58-11.57,6.88-17.35S198.53,180,200.67,174.16Z" style="fill:#dbdbdb"></path><path d="M284.43,406.09H253.55c-1.83-21.63-3.71-44.24-5.57-66.47-2.65-31.77-5.27-62.77-7.71-89.07a538.74,538.74,0,0,0-11.53-72.72c-.14-.61-.23-1-.25-1.05s0,0,0,0a13.62,13.62,0,0,1,3.27,2.85.94.94,0,0,0,.1.1l.33.37a3.15,3.15,0,0,1,.25.28c5.31,5.83,14.19,17.75,22.09,30,7.62,11.8,14.34,23.89,16,31.07l.09.4c.05.23.09.45.13.67a38.77,38.77,0,0,1,.55,5.76h0a44.17,44.17,0,0,1-5.91,22.49,1.4,1.4,0,0,1-.09.17c-.26.44-.42.67-.42.67l0,.11L275,341Z" style="fill:#ebebeb"></path><path d="M260.06,220.52c-3-4.82-6.13-9.59-9.1-14.45-.09-.14.13-.3.23-.17,3,4,6,8,8.91,12.07-1-2.17-1.91-4.35-2.78-6.57-.1-.25.25-.46.37-.21,1.35,2.85,2.56,5.75,3.76,8.67a82.67,82.67,0,0,1,6.92,11.44c4.13,8.49,5.91,17.77,3.67,27.05a33.65,33.65,0,0,1-2.7,7.4c-.8,1.6-3.41,5.08-3.39,5.18,1.7,9.48,3,19.07,4.31,28.61s2.72,19.3,3.85,29c.63,5.48,1,11,1.84,16.47,0,.2-.28.28-.31.08-.69-4.76-1.72-9.47-2.57-14.21s-1.64-9.48-2.41-14.24c-1.54-9.6-2.92-19.24-4.31-28.87-.78-5.44-1.64-10.89-2.26-16.36-.07-.6,2.39-4.48,3.12-6a38.78,38.78,0,0,0,2.38-6.26,35,35,0,0,0,1.14-13.47C269.68,236.46,264.9,228.25,260.06,220.52Z" style="fill:#263238"></path><path d="M228.74,177.83q4.78,7.26,9.73,14.39c3.32,4.74,6.56,9.54,9.94,14.23l.07-1.12-8.12,8.51-.67.7.71.69c3.42,3.31,6.9,6.56,10.37,9.82l-.29-.84c-1.26,8.82-2.61,17.62-3.73,26.46s-2.31,17.67-3.28,26.53c1.68-8.76,3.21-17.53,4.68-26.32s2.84-17.59,4.24-26.38l.08-.5-.37-.35c-3.43-3.3-6.86-6.61-10.34-9.85l0,1.39,8-8.66.5-.54-.43-.58c-3.41-4.67-7-9.24-10.44-13.87S232.35,182.37,228.74,177.83Z" style="fill:#dbdbdb"></path><path d="M189.7,189.07c-.81-11.83,13.52-16.53,22.38-17.75,10.49-1.44,17.48-.57,22.53,9.61,5.32,10.73,8.11,23.18,10.2,34.93.39,2.19,3.81,1.64,3.42-.56-2.41-13.53-5.87-38.78-19.35-46.12-12.41-6.77-44,.4-42.6,20.44.15,2.23,3.57,1.66,3.42-.55Z" style="fill:#455a64"></path><path d="M255.42,220.77a8,8,0,1,1-9.12-6.58A7.95,7.95,0,0,1,255.42,220.77Z" style="fill:#263238"></path><path d="M252.29,221.28a4.79,4.79,0,1,1-5.49-4A4.78,4.78,0,0,1,252.29,221.28Z" style="fill:#ebebeb"></path><path d="M201.73,226.13c8.75,33.23,7.4,41.35,4.64,45.17a22,22,0,0,1-7.8,6.3l-1-2.19.5,1.09-.5-1.09a20,20,0,0,0,6.85-5.52c2-2.76,3.64-10.24-5-43.15Z" style="fill:#c7c7c7"></path><rect x="195.1" y="272.5" width="5.14" height="8.36" rx="1.11" transform="translate(51.4 583.65) rotate(-118.98)" style="fill:#263238"></rect><path d="M180,227c-6.59,25-8.18,38.76-5,43.15a19.94,19.94,0,0,0,6.85,5.51l-1,2.2a22,22,0,0,1-7.8-6.3c-3.78-5.22-2.44-18.31,4.63-45.17Z" style="fill:#c7c7c7"></path><rect x="179.2" y="272.72" width="5.14" height="8.36" rx="1.11" transform="translate(-148.5 302.01) rotate(-61.06)" style="fill:#263238"></rect><path d="M176.87,225.3a137.86,137.86,0,0,1,4.31-16.38A14.48,14.48,0,0,1,186,203c.48-.05.27-4.27,0-7.71-.22-3-.54-6.58.19-7.56a2.38,2.38,0,0,1,3.31-.17c.83.89.88,4.45,1,7.5.12,3.45.36,7.66.84,7.66a15.79,15.79,0,0,1,5.15,5.47,114.3,114.3,0,0,1,5.76,16.35c.77,3.56-.4,4-1.42,4.36-1.44.49-2.36-.5-3.49-4.44-1.8-6.24-4.07-16.75-8.42-16.72h0c-4.31.44-6.06,11.57-7.44,17.78-.87,3.89-1.69,4.26-3.18,3.92C177.26,229.19,176.19,228.75,176.87,225.3Z" style="fill:#263238"></path><path d="M229.45,174.79s1,19.27-2.56,19.59c-10.79,1-22.79-13.84-23.45-16.19-.17-.6.7-15.56,1.41-27.19.45-7.48.84-13.58.84-13.58l27.57,15.8-3.55,20.13Z" style="fill:#ad6359"></path><path d="M233.26,153.22l-3.55,20.13A41,41,0,0,1,204.85,151c.45-7.48.84-13.58.84-13.58l3.47,1.84Z" style="fill:#263238"></path><path d="M261.64,121.16c5.75,35.42-14.82,42.86-22.46,44.09-6.93,1.12-30.68,4.05-40.06-30.59s5.27-48.5,21-51.9S255.89,85.74,261.64,121.16Z" style="fill:#ad6359"></path><path d="M253,116.79a22.78,22.78,0,0,1-2.47-.29,4,4,0,0,1-2.45-.77,1.28,1.28,0,0,1-.14-1.55,3.15,3.15,0,0,1,3-1,4.59,4.59,0,0,1,3.06,1.37A1.36,1.36,0,0,1,253,116.79Z" style="fill:#263238"></path><path d="M229,119.87c.83-.18,1.56-.48,2.36-.73a4,4,0,0,0,2.28-1.21,1.27,1.27,0,0,0-.15-1.55,3.14,3.14,0,0,0-3.17-.45,4.65,4.65,0,0,0-2.76,1.9A1.37,1.37,0,0,0,229,119.87Z" style="fill:#263238"></path><path d="M235.73,127.94c0-.09-.17.13-.16.23.36,2.42.36,5.25-1.75,6.31-.06,0,0,.15,0,.13C236.49,133.93,236.46,130.17,235.73,127.94Z" style="fill:#263238"></path><path d="M233.27,125.65c-3.93.15-3.34,8,.31,7.88S236.57,125.52,233.27,125.65Z" style="fill:#263238"></path><path d="M231.76,126.18c-.65.5-1.27,1.34-2.09,1.48s-1.74-.6-2.42-1.35c-.07-.07-.14,0-.13.11.09,1.5.79,3,2.42,3.11s2.45-1.32,2.71-2.87C232.3,126.38,232,126,231.76,126.18Z" style="fill:#263238"></path><path d="M249.12,126.13c0-.1.2.1.2.2.09,2.44.6,5.22,2.86,5.88.07,0,.07.15,0,.14C249.45,132.16,248.81,128.45,249.12,126.13Z" style="fill:#263238"></path><path d="M251.12,123.43c3.9-.56,4.74,7.28,1.13,7.8S247.85,123.91,251.12,123.43Z" style="fill:#263238"></path><path d="M252.81,123.77c.67.35,1.36,1,2.11,1s1.4-1,1.86-1.82c.05-.09.12,0,.13.07.21,1.5-.12,3.11-1.53,3.55s-2.39-.78-2.91-2.23C252.38,124.08,252.54,123.63,252.81,123.77Z" style="fill:#263238"></path><path d="M237.76,147c.6.55,1.21,1.32,2.1,1.37a6.5,6.5,0,0,0,2.61-.69.08.08,0,0,1,.1.12,3.28,3.28,0,0,1-3,1.42,2.6,2.6,0,0,1-2-2.1C237.49,147,237.67,147,237.76,147Z" style="fill:#263238"></path><path d="M247.17,137.34s.82,3.59,1,5.31c0,.16-.4.27-1,.36,0,0,0,0-.06,0a8.16,8.16,0,0,1-8.18-2.35c-.14-.16.06-.35.23-.26a12.35,12.35,0,0,0,7.63,1.48c.08-.48-1.61-6.1-1.34-6.14a14.57,14.57,0,0,1,4,.54c-1.49-7.53-4.18-14.76-5.55-22.28a.24.24,0,0,1,.44-.15c3.35,7.38,5.26,16,7,23.74C251.52,138.55,247.88,137.57,247.17,137.34Z" style="fill:#263238"></path><path d="M245.22,142.67a8.11,8.11,0,0,1-3.17,2.69,3.62,3.62,0,0,1-2.24.24c-1.64-.35-1.74-1.84-1.5-3.13a8.71,8.71,0,0,1,.64-2A10.55,10.55,0,0,0,245.22,142.67Z" style="fill:#263238"></path><path d="M242.05,145.36a3.62,3.62,0,0,1-2.24.24c-1.64-.35-1.74-1.84-1.5-3.13C240.05,142.58,241.83,143.68,242.05,145.36Z" style="fill:#ff99ba"></path><path d="M199.12,136a14.78,14.78,0,0,0,8.33-12,38.5,38.5,0,0,0,15.77-12.58c-.24.74-2,6.07-3,8.75,22.76-4.14,29.88-21.51,29.88-21.51,7.35,7.39,8.8,12.11,9.85,14.46,0,0,.24-14-6.9-23.33A20.62,20.62,0,0,0,231.75,82a28.79,28.79,0,0,0-30.84,8C186.06,106,199.12,136,199.12,136Z" style="fill:#263238"></path><path d="M237.54,116.54a42,42,0,0,1-11.68,4.23s-.05,0,0,0a35.74,35.74,0,0,0,16.74-10,33.27,33.27,0,0,0,4.94-6.84,23.47,23.47,0,0,0,3.07-8.66.18.18,0,0,1,.35,0,27.39,27.39,0,0,1-1.85,9A25,25,0,0,1,244,111.7a28.7,28.7,0,0,1-6.47,4.84" style="fill:#263238"></path><path d="M231.29,141a11.2,11.2,0,1,1,10.53-14.21h0a11.21,11.21,0,0,1-7.78,13.8A11.44,11.44,0,0,1,231.29,141Zm-.48-20.9a9.48,9.48,0,0,0-2.39.36,9.69,9.69,0,1,0,2.39-.36Z" style="fill:#B0BEC5"></path><path d="M256.72,137.3c-4.28.1-8.27-4.2-9.09-10a13.36,13.36,0,0,1,1.26-8.08,7,7,0,0,1,11.82-1.67,13.36,13.36,0,0,1,3.44,7.43c.86,6.11-2.14,11.61-6.7,12.25A4.4,4.4,0,0,1,256.72,137.3Zm-1.61-20.8a5.46,5.46,0,0,0-.57,0,6,6,0,0,0-4.33,3.39,11.87,11.87,0,0,0-1.09,7.17c.74,5.3,4.38,9.19,8.12,8.66s6.17-5.27,5.43-10.56a12,12,0,0,0-3-6.6A6.15,6.15,0,0,0,255.11,116.5Z" style="fill:#B0BEC5"></path><path d="M241.63,128.14l-1.12-1c1.49-1.65,5.11-4.09,8.22-1.58l-.94,1.17C245,124.47,241.76,128,241.63,128.14Z" style="fill:#B0BEC5"></path><path d="M192.61,138l-1.41-.5c.23-.66,2.35-6.47,5.58-7.47,3-.93,23.17-1.87,24-1.9l.07,1.49c-5.77.26-21.31,1.12-23.64,1.84C195.09,132.08,193.17,136.36,192.61,138Z" style="fill:#B0BEC5"></path><path d="M205.19,136.47s-8.64-10.59-13.51-7.42S193.9,148,200,149.73a6.06,6.06,0,0,0,7.86-3.85Z" style="fill:#ad6359"></path><path d="M193.83,133.51a.08.08,0,0,0,0,.16c4.29,1.38,6.78,5.09,8.62,9-1.36-1.45-3.11-2.17-5.07-.54-.1.09,0,.25.13.22a3.72,3.72,0,0,1,4.19,1,18,18,0,0,1,2.21,3.17c.22.36.88.11.71-.31l0-.1C204.27,140.76,199.58,133.62,193.83,133.51Z" style="fill:#263238"></path><path d="M203.26,147.9a1.26,1.26,0,1,1-2.51.12,1.26,1.26,0,0,1,2.51-.12Z" style="fill:#fff"></path><path d="M199.64,145.9a.79.79,0,1,1-1.58.08.79.79,0,0,1,1.58-.08Z" style="fill:#fff"></path><path d="M229.46,175.76l-6,15.72-19.76-19.37-5.37,6.44s19.56,31,19.65,29.58l6.17-13.57,9.46,9.18-1.2-23.47Z" style="fill:#B0BEC5"></path><path d="M233.7,192.1c-.32-3.87-.55-7.77-1-11.62,0-.14-.24-.2-.27,0-.7,3.75.63,18.54.68,22.09l0,0c-.39-.4-8.76-8.07-8.84-7.94-1.35,2.16-5.88,12-6.19,12.94-3.09-4.92-16.19-24.32-19.83-29a.13.13,0,0,0-.23.14c2.75,5.21,19.69,30.81,19.92,30.73a152.81,152.81,0,0,0,6.45-14.34c1.42,1.68,9.88,10.35,9.9,9.78A120.57,120.57,0,0,0,233.7,192.1Z" style="fill:#263238"></path><path d="M230.86,226.6s-7.73-10.2-.35-14.91,13.37,6.6,13.37,6.6Z" style="fill:#455a64"></path><path d="M292,293.72h0l1.07,12.47.38,4.12-3.61-2.05L279,302h0v0l-48.39-75.84,13-8.31L292,293.72Z" style="fill:#455a64"></path><polygon points="293.1 306.21 293.46 310.32 289.86 308.27 293.1 306.21" style="fill:#37474f"></polygon><rect x="228.79" y="221.33" width="18.03" height="3.58" transform="translate(-82.68 162.94) rotate(-32.54)" style="fill:#263238"></rect><rect x="230.91" y="224.66" width="18.03" height="3.58" transform="translate(-84.14 164.62) rotate(-32.54)" style="fill:#263238"></rect><polygon points="233.29 232.81 238.19 229.68 253 258.85 251.13 259.89 233.29 232.81" style="fill:#263238"></polygon><path d="M203,253.37c7.43-1.47,30,62.05,19.15,64.74-48.16,12-87.59,4.44-96.93,0-12.25-5.87-13.27-21.6-8.15-28.86C126,276.66,191.48,255.66,203,253.37Z" style="fill:#ad6359"></path><path d="M295.49,250c-.12,7.33-18.17,5.51-18.17,5.51a13.5,13.5,0,0,1,5.35,7.49c1.25,5.43-6.71,9.77-6.71,9.77a16.7,16.7,0,0,1,4.38,8.79c.67,5.32-6.74,10.84-6.74,10.84a14.62,14.62,0,0,1-1,10.16c-4.47,8.26-54.35,16.24-60.56,17.37l-12-65s39.19-22.16,50-21.42C259.13,234.06,295.67,238.77,295.49,250Z" style="fill:#ad6359"></path><path d="M277.18,255.27c-9.52-3-19.74-3.69-29.6-4.26a.17.17,0,0,0,0,.34c9.82.45,19.75,3.54,29.53,4.39A.24.24,0,0,0,277.18,255.27Z" style="fill:#263238"></path><path d="M275.71,272a26.11,26.11,0,0,0-6.78-.52q-3.62,0-7.23.06-7.24.18-14.46.73c-.21,0-.24.34,0,.34,4.8-.11,9.61-.15,14.42-.06,2.41,0,4.81.11,7.22.19a30.91,30.91,0,0,0,6.8-.08A.35.35,0,0,0,275.71,272Z" style="fill:#263238"></path><path d="M273.39,292.37c-1.86-.6-4.19-.23-6.12-.14l-6.6.27c-4.39.15-8.78.3-13.18.3-.22,0-.24.34,0,.34,4.47,0,8.94.11,13.4.09,2.2,0,4.39,0,6.59-.06,1.86,0,4.2.15,6-.58A.12.12,0,0,0,273.39,292.37Z" style="fill:#263238"></path><path d="M195.68,254.21l21.57,71.57s-78.56,3.83-95.41-8.42c-11.71-8.52-10.74-24.55-5.45-30.07C127.94,275.24,195.68,254.21,195.68,254.21Z" style="fill:#ebebeb"></path><path d="M196.55,323c-3.39-10-15.78-51.2-17.86-60.29-.14-.63.22-.87.46-.24,10.88,29.59,15,50.45,17.79,60.38C197,323.12,196.64,323.27,196.55,323Z" style="fill:#263238"></path><path d="M195.7,253.47c-.43-.09-8,1.87-10.42,2.58q-7.09,2.11-14.08,4.58a286.71,286.71,0,0,0-27.28,11.22l-1.33.64c-3.25.78-6.42,1.9-9.58,2.94-.09,0,0,.17,0,.14,2.53-.84,5.1-1.5,7.67-2.18-1.42.69-2.85,1.39-4.25,2.12-2.49,1.29-4.92,2.68-7.39,4a.07.07,0,1,0,.07.12c4.15-2.15,8.46-4.06,12.72-6s8.7-3.83,13.1-5.61c8.67-3.51,17.51-6.65,26.46-9.41,2.52-.77,5-1.51,7.58-2.23,1.24-.35,6.4-2.1,6.62-2.12a2.16,2.16,0,0,1,.27.6c.06.21.3.21.25,0A6.23,6.23,0,0,0,195.7,253.47Z" style="fill:#263238"></path><path d="M206.34,326.1c-2.28-.16-10.69.25-12.94.25-4.54,0-9.07,0-13.61-.08-9.12-.24-18.2-.9-27.28-1.77-2.51-.24-5-.51-7.54-.78s-5.27-.47-7.85-.94c-.1,0-.14.14,0,.16,2.26.33,4.48.86,6.73,1.25s4.51.73,6.78,1.05c4.54.64,9.1,1.09,13.67,1.47,9.12.75,18.3,1,27.45.83,2.58-.05,12.21-.45,14.71-1C206.71,326.53,206.6,326.12,206.34,326.1Z" style="fill:#263238"></path><polygon points="357.37 340.17 274.87 346.15 305.71 237.53 388.21 231.55 357.37 340.17" style="fill:#fff"></polygon><polygon points="363.01 339.76 280.52 345.74 311.36 237.12 393.85 231.14 363.01 339.76" style="fill:#37474f"></polygon><path d="M320.12,236.5a7.25,7.25,0,0,1-3.22,4.56c-.75.48-1-.53-.29-1a5.49,5.49,0,0,0,2.2-2.89c.05-.19.11-.41.14-.6a3.83,3.83,0,0,0,0-2,1.28,1.28,0,0,0-.51-.69.18.18,0,0,1-.06-.05s-.09,0-.1,0a.62.62,0,0,1-.16,0,1.09,1.09,0,0,0-.58.09,2.39,2.39,0,0,0-.9.68,5.17,5.17,0,0,0-.74,1.16,6.19,6.19,0,0,0-.32.63l0,.15a.83.83,0,0,0-.08.22s-.06.09-.05.14l-1.17.09a8.9,8.9,0,0,1,1-2.12,4.52,4.52,0,0,1,3-2.25,1.82,1.82,0,0,1,2,1.56A4.71,4.71,0,0,1,320.12,236.5Z" style="fill:#B0BEC5"></path><path d="M326.58,236a7.33,7.33,0,0,1-3.22,4.56c-.76.48-1-.53-.29-1a5.42,5.42,0,0,0,2.19-2.89,4.39,4.39,0,0,0,.15-.6,3.83,3.83,0,0,0,0-2,1.29,1.29,0,0,0-.52-.69.14.14,0,0,1-.05,0s-.09,0-.11,0l-.15,0a1.09,1.09,0,0,0-.58.09,2.39,2.39,0,0,0-.9.68,4.55,4.55,0,0,0-.74,1.16,6.36,6.36,0,0,0-.32.64l0,.14a.68.68,0,0,0-.09.22c0,.05-.05.1,0,.14l-1.17.09a8.53,8.53,0,0,1,1-2.12,4.5,4.5,0,0,1,3-2.25,1.83,1.83,0,0,1,2,1.56A4.83,4.83,0,0,1,326.58,236Z" style="fill:#B0BEC5"></path><path d="M333,235.56a7.35,7.35,0,0,1-3.23,4.57c-.75.47-1-.54-.29-1a5.44,5.44,0,0,0,2.2-2.89c0-.19.12-.4.15-.59a4,4,0,0,0,0-2,1.23,1.23,0,0,0-.51-.69l-.06,0s-.08,0-.1,0H331a1,1,0,0,0-.57.08,2.42,2.42,0,0,0-.91.68,5.17,5.17,0,0,0-.74,1.16c-.12.2-.21.42-.32.64l0,.14a1,1,0,0,0-.08.22c0,.05-.05.1,0,.14l-1.17.09a8.48,8.48,0,0,1,1-2.12,4.49,4.49,0,0,1,3-2.24,1.81,1.81,0,0,1,2,1.55A4.82,4.82,0,0,1,333,235.56Z" style="fill:#B0BEC5"></path><path d="M339.49,235.09a7.3,7.3,0,0,1-3.22,4.57c-.75.48-1-.54-.29-1a5.53,5.53,0,0,0,2.2-2.89c.05-.2.11-.41.14-.6a3.86,3.86,0,0,0,0-2,1.31,1.31,0,0,0-.51-.69l-.06,0s-.09,0-.1,0h-.16a.93.93,0,0,0-.58.09,2.26,2.26,0,0,0-.9.67,5.17,5.17,0,0,0-.74,1.16,6.36,6.36,0,0,0-.32.64l0,.14a1.19,1.19,0,0,0-.08.22c0,.05-.06.1-.05.15l-1.17.08a8.9,8.9,0,0,1,1-2.12,4.5,4.5,0,0,1,3-2.24,1.81,1.81,0,0,1,2,1.55A4.71,4.71,0,0,1,339.49,235.09Z" style="fill:#B0BEC5"></path><path d="M346,234.62a7.37,7.37,0,0,1-3.22,4.57c-.76.48-1-.54-.29-1a5.46,5.46,0,0,0,2.19-2.89,4.39,4.39,0,0,0,.15-.6,3.82,3.82,0,0,0,0-2,1.32,1.32,0,0,0-.52-.7.14.14,0,0,1-.05,0s-.09,0-.11,0h-.15a1,1,0,0,0-.58.09,2.36,2.36,0,0,0-.9.67,4.78,4.78,0,0,0-.74,1.17,5.3,5.3,0,0,0-.32.63l0,.14a.79.79,0,0,0-.09.22c0,.05-.05.1,0,.15l-1.17.08a8.53,8.53,0,0,1,1-2.12,4.51,4.51,0,0,1,3-2.24,1.82,1.82,0,0,1,2,1.55A4.83,4.83,0,0,1,346,234.62Z" style="fill:#B0BEC5"></path><path d="M352.41,234.16a7.36,7.36,0,0,1-3.23,4.56c-.75.48-1-.54-.29-1a5.48,5.48,0,0,0,2.2-2.89c.05-.19.12-.41.15-.6a3.93,3.93,0,0,0,0-2,1.29,1.29,0,0,0-.51-.7l-.06,0s-.08,0-.1,0a.62.62,0,0,1-.16,0,1,1,0,0,0-.57.09,2.32,2.32,0,0,0-.91.68,5.17,5.17,0,0,0-.74,1.16c-.12.19-.21.41-.32.63l0,.15a.9.9,0,0,0-.08.21.28.28,0,0,0,0,.15l-1.17.08a8.59,8.59,0,0,1,1-2.11,4.53,4.53,0,0,1,3-2.25,1.81,1.81,0,0,1,2,1.55A4.86,4.86,0,0,1,352.41,234.16Z" style="fill:#B0BEC5"></path><path d="M358.86,233.69a7.25,7.25,0,0,1-3.22,4.56c-.75.48-1-.53-.29-1a5.49,5.49,0,0,0,2.2-2.89c.05-.19.11-.41.14-.6a3.83,3.83,0,0,0,0-2,1.28,1.28,0,0,0-.51-.69.18.18,0,0,1-.06-.05s-.09,0-.1,0a.62.62,0,0,1-.16,0,1.09,1.09,0,0,0-.58.09,2.39,2.39,0,0,0-.9.68,4.84,4.84,0,0,0-.74,1.16,6.19,6.19,0,0,0-.32.63l0,.15a1.45,1.45,0,0,0-.09.22s-.05.09,0,.14l-1.17.09a8.9,8.9,0,0,1,1-2.12,4.52,4.52,0,0,1,3-2.25,1.82,1.82,0,0,1,2,1.56A4.71,4.71,0,0,1,358.86,233.69Z" style="fill:#B0BEC5"></path><path d="M365.32,233.22a7.33,7.33,0,0,1-3.22,4.56c-.76.48-1-.53-.29-1A5.42,5.42,0,0,0,364,233.9a4.39,4.39,0,0,0,.15-.6,3.93,3.93,0,0,0,0-2,1.29,1.29,0,0,0-.52-.69.14.14,0,0,1-.05,0s-.09,0-.11,0l-.15,0a1.09,1.09,0,0,0-.58.09,2.39,2.39,0,0,0-.9.68,4.55,4.55,0,0,0-.74,1.16,6.36,6.36,0,0,0-.32.64l0,.14a.68.68,0,0,0-.09.22c0,.05-.05.1,0,.14l-1.17.09a8.53,8.53,0,0,1,1-2.12,4.5,4.5,0,0,1,3-2.25,1.83,1.83,0,0,1,2,1.56A4.83,4.83,0,0,1,365.32,233.22Z" style="fill:#B0BEC5"></path><path d="M371.78,232.75a7.35,7.35,0,0,1-3.23,4.57c-.75.47-1-.54-.29-1a5.44,5.44,0,0,0,2.2-2.89c.05-.19.12-.4.15-.59a4,4,0,0,0,0-2,1.23,1.23,0,0,0-.51-.69l-.06,0s-.08,0-.1,0h-.16a1,1,0,0,0-.57.08,2.42,2.42,0,0,0-.91.68,5.17,5.17,0,0,0-.74,1.16c-.12.2-.21.42-.32.64l0,.14a1.19,1.19,0,0,0-.08.22c0,.05,0,.1,0,.14l-1.17.09a8.48,8.48,0,0,1,1-2.12,4.49,4.49,0,0,1,3-2.24,1.81,1.81,0,0,1,2,1.55A4.82,4.82,0,0,1,371.78,232.75Z" style="fill:#B0BEC5"></path><path d="M378.23,232.28a7.3,7.3,0,0,1-3.22,4.57c-.75.48-1-.54-.29-1a5.57,5.57,0,0,0,2.2-2.89c.05-.2.11-.41.14-.6a3.86,3.86,0,0,0,0-2,1.31,1.31,0,0,0-.51-.69l-.06,0s-.09,0-.1,0h-.16a.93.93,0,0,0-.58.09,2.26,2.26,0,0,0-.9.67,4.84,4.84,0,0,0-.74,1.16,6.36,6.36,0,0,0-.32.64l0,.14a1.28,1.28,0,0,0-.09.22c0,.05-.05.1,0,.15l-1.17.08a8.9,8.9,0,0,1,1-2.12,4.5,4.5,0,0,1,3-2.24,1.81,1.81,0,0,1,2,1.55A4.71,4.71,0,0,1,378.23,232.28Z" style="fill:#B0BEC5"></path><path d="M384.69,231.81a7.37,7.37,0,0,1-3.22,4.57c-.76.48-1-.54-.29-1a5.46,5.46,0,0,0,2.19-2.89,4.39,4.39,0,0,0,.15-.6,3.93,3.93,0,0,0,0-2,1.32,1.32,0,0,0-.52-.7.14.14,0,0,1-.05,0s-.09,0-.11,0h-.15a1,1,0,0,0-.58.09,2.36,2.36,0,0,0-.9.67,5.14,5.14,0,0,0-.75,1.17,5.27,5.27,0,0,0-.31.63l0,.14a.79.79,0,0,0-.09.22c0,.05-.05.1,0,.15l-1.17.08a8.53,8.53,0,0,1,1-2.12,4.51,4.51,0,0,1,3-2.24,1.82,1.82,0,0,1,2,1.55A4.83,4.83,0,0,1,384.69,231.81Z" style="fill:#B0BEC5"></path><path d="M391.15,231.35a7.36,7.36,0,0,1-3.23,4.56c-.75.48-1-.54-.29-1a5.48,5.48,0,0,0,2.2-2.89c.05-.19.11-.41.15-.6a3.93,3.93,0,0,0,0-2,1.29,1.29,0,0,0-.51-.7l-.06,0s-.08,0-.1,0a.62.62,0,0,1-.16,0,1,1,0,0,0-.57.09,2.32,2.32,0,0,0-.91.68,5.17,5.17,0,0,0-.74,1.16c-.12.19-.21.41-.32.63l0,.15a.9.9,0,0,0-.08.21.28.28,0,0,0,0,.15l-1.17.08a8.82,8.82,0,0,1,1-2.12,4.55,4.55,0,0,1,3-2.24,1.81,1.81,0,0,1,2,1.55A4.86,4.86,0,0,1,391.15,231.35Z" style="fill:#B0BEC5"></path><path d="M389.79,255.56c4.37,8.93,15.23,20,16.2,27.29a8.47,8.47,0,0,1-4.61,9s7.37,3.57,7.15,10.36c-.12,3.5-5.8,6.38-5.8,6.38s5.77,3.12,5.21,9.15c-.46,4.8-6.08,7-6.08,7S406,330.29,404,335c-4.11,9.62-45.52,10.1-52.09-5.08-3.07-7.07,7.05-6.64,7.05-6.64s-14.4-4.13-14.72-12.67,12.8-7.18,12.8-7.18-13.92-4.13-13.36-13c.59-9.24,13.48-5.64,13.48-5.64s-9.28-6.14-7.29-12.84c3.28-11.06,20.87,2.6,30,.34l4.85-15.07Z" style="fill:#ad6359"></path><path d="M398.24,268.51c-3.39-8.82,7.45-19.88,5.41-28.77-2.75-12-16.2-.06-19,17.5l.2,14Z" style="fill:#ad6359"></path><path d="M401,325.19c.13,0,.18.18,0,.21-13.58,3.48-29.57,3.14-42.68-2-.43-.17-.34-.94.17-.84C373.09,325.26,386.21,326.55,401,325.19Z" style="fill:#263238"></path><path d="M402.93,308.68c.16,0,.19.25,0,.29-14,3.51-32,2.63-46.42-5.13-.5-.26-.67-1-.08-.73C366.42,307.53,389.61,310,402.93,308.68Z" style="fill:#263238"></path><path d="M356.25,283.91c14.11,6.9,29,8.59,44.57,8.12.2,0,.19.28,0,.33-7.55,2.3-17.49,1.57-25.18.34A41.4,41.4,0,0,1,356,284.41C355.78,284.23,356,283.77,356.25,283.91Z" style="fill:#263238"></path></g><g id="freepik--Desk--inject-38"><polygon points="48.36 406.09 98.77 405.85 149.18 405.76 250 405.59 350.82 405.76 401.23 405.85 451.64 406.09 401.23 406.34 350.82 406.42 250 406.59 149.18 406.42 98.77 406.33 48.36 406.09" style="fill:#263238"></polygon></g><g id="freepik--Pills--inject-38"><rect x="65.79" y="363.64" width="44.42" height="66.64" style="fill:#B0BEC5"></rect><rect x="60.43" y="345.74" width="55.15" height="17.89" style="fill:#455a64"></rect><rect x="73.22" y="382.81" width="29.57" height="29.57" style="fill:#fff"></rect><polygon points="65.79 363.64 65.79 368.83 90.8 378.28 90.8 430.27 102.79 430.27 102.79 363.64 65.79 363.64" style="opacity:0.1"></polygon><path d="M52,428.75v0a5.58,5.58,0,0,1,5.59-5.58H68.71a5.59,5.59,0,0,1,5.6,5.58v0a5.6,5.6,0,0,1-5.6,5.59H57.63A5.6,5.6,0,0,1,52,428.75Z" style="fill:#455a64"></path><path d="M52,428.75v0a5.58,5.58,0,0,1,5.59-5.58h5.55v11.19H57.63A5.6,5.6,0,0,1,52,428.75Z" style="fill:#B0BEC5"></path><path d="M128,428.75h0a5.59,5.59,0,0,1-5.6,5.58H111.37a5.59,5.59,0,0,1-5.6-5.58h0a5.6,5.6,0,0,1,5.6-5.6h11.07A5.6,5.6,0,0,1,128,428.75Z" style="fill:#455a64"></path><path d="M128,428.75h0a5.59,5.59,0,0,1-5.6,5.58H116.9V423.15h5.54A5.6,5.6,0,0,1,128,428.75Z" style="fill:#B0BEC5"></path><path d="M140.61,431v0a5.58,5.58,0,0,1-7.9,0l-7.84-7.83a5.59,5.59,0,0,1,0-7.9h0a5.61,5.61,0,0,1,7.92,0l7.83,7.83A5.6,5.6,0,0,1,140.61,431Z" style="fill:#455a64"></path><path d="M140.61,431v0a5.58,5.58,0,0,1-7.9,0l-3.92-3.92,7.91-7.91,3.92,3.92A5.6,5.6,0,0,1,140.61,431Z" style="fill:#B0BEC5"></path><path d="M89.94,439.94v0a5.59,5.59,0,0,1,5.6-5.58h11.07a5.59,5.59,0,0,1,5.6,5.58v0a5.6,5.6,0,0,1-5.6,5.59H95.54A5.6,5.6,0,0,1,89.94,439.94Z" style="fill:#455a64"></path><path d="M89.94,439.94v0a5.59,5.59,0,0,1,5.6-5.58h5.54v11.19H95.54A5.6,5.6,0,0,1,89.94,439.94Z" style="fill:#B0BEC5"></path></g><g id="freepik--Aspirins--inject-38"><g style="isolation:isolate"><path d="M319.16,427.69l-.28,3.92c0,.06,0,.13,0,.2-.21,1.24-1.62,2.27-3.73,2.91a20.82,20.82,0,0,1-6.91.72l-1-.07c-.34,0-.69-.06-1-.11-5.34-.69-9.28-2.89-9.12-5.18l.27-3.91c-.16,2.29,3.78,4.49,9.12,5.18l1,.1c.34,0,.69.06,1,.07a20.56,20.56,0,0,0,6.91-.72c2.11-.63,3.51-1.65,3.73-2.9C319.15,427.82,319.15,427.77,319.16,427.69Z" style="fill:#dbdbdb"></path><path d="M301.1,423.06a20.7,20.7,0,0,1,6.89-.72l-1.53,9c.33,0,.68.08,1,.1s.68.06,1,.08l1.53-9c5.5.7,9.51,3,9.1,5.37-.2,1.25-1.61,2.27-3.72,2.92a20.82,20.82,0,0,1-6.91.72c-.34,0-.69,0-1-.08s-.69-.06-1-.1c-5.5-.7-9.51-3-9.1-5.37C297.57,424.73,299,423.7,301.1,423.06Z" style="fill:#fff"></path><path d="M308,422.34l1,.07,1,.11-1.53,9c-.34,0-.69,0-1-.08s-.69-.06-1-.1Z" style="fill:#dbdbdb"></path></g><g style="isolation:isolate"><path d="M318.54,434.91l0,3.92a1.33,1.33,0,0,0,0,.2c.11,1.25,1.44,2.4,3.48,3.2a20.78,20.78,0,0,0,6.83,1.27h1c.34,0,.69,0,1,0,5.38-.26,9.49-2.14,9.51-4.44l0-3.92c0,2.29-4.13,4.17-9.51,4.44h-1a8.81,8.81,0,0,1-1,0,20.8,20.8,0,0,1-6.83-1.26c-2.06-.8-3.37-1.94-3.48-3.2A1.34,1.34,0,0,1,318.54,434.91Z" style="fill:#dbdbdb"></path><path d="M336.92,431.73a20.72,20.72,0,0,0-6.82-1.27l.81,9.1c-.34,0-.69,0-1,0h-1l-.81-9.1c-5.54.26-9.72,2.24-9.5,4.62.11,1.27,1.43,2.4,3.48,3.21a20.78,20.78,0,0,0,6.83,1.27h1c.34,0,.69,0,1,0,5.53-.26,9.72-2.24,9.5-4.62C340.3,433.67,339,432.54,336.92,431.73Z" style="fill:#fff"></path><path d="M330.1,430.46h-1q-.51,0-1,0l.81,9.1h1c.34,0,.69,0,1,0Z" style="fill:#dbdbdb"></path></g><g style="isolation:isolate"><path d="M289.33,433.65a17.24,17.24,0,0,1-7.81,2.22,16,16,0,0,1-6.89-1.05c-.24-.1-.49-.23-.73-.35s-.46-.26-.67-.4A4.48,4.48,0,0,1,271,430.8l-.36-3.57a4.49,4.49,0,0,0,2.3,3.28q.3.19.66.39a6.82,6.82,0,0,0,.72.35,16,16,0,0,0,6.89,1.05,17.35,17.35,0,0,0,7.81-2.2c2.43-1.46,3.57-3.31,3.39-5l.36,3.57C292.9,430.35,291.76,432.2,289.33,433.65Z" style="fill:#dbdbdb"></path><path d="M274.28,431.25l.2,2.08L289,424.62l-.35-3.57-15.78,9.46c.19.13.42.26.66.39S274,431.14,274.28,431.25Z" style="fill:#B0BEC5"></path><path d="M288.67,421.05c.25.11.5.22.74.35s.45.25.66.39l-15.79,9.46c-.26-.11-.49-.22-.73-.35s-.47-.26-.66-.39Z" style="fill:#dbdbdb"></path><polygon points="290.07 421.79 290.43 425.35 274.63 434.81 274.28 431.25 290.07 421.79" style="fill:#dbdbdb"></polygon><path d="M281.78,420a16.1,16.1,0,0,1,6.89,1.05l-15.78,9.46c.19.13.42.26.66.39s.47.24.73.35l15.79-9.46c3.44,2.22,3,5.83-1.1,8.3a17.35,17.35,0,0,1-7.8,2.21,16.08,16.08,0,0,1-6.89-1.05c-.26-.11-.49-.22-.73-.35s-.47-.26-.66-.39c-3.44-2.23-3-5.83,1.1-8.3A17.35,17.35,0,0,1,281.78,420Z" style="fill:#fff"></path></g><path d="M347.05,430.77a17.23,17.23,0,0,0,7.8,2.22,16,16,0,0,0,6.9-1.05c.24-.1.49-.23.73-.35s.46-.26.66-.4a4.49,4.49,0,0,0,2.29-3.27l.36-3.57a4.51,4.51,0,0,1-2.3,3.28q-.3.19-.66.39a6.82,6.82,0,0,1-.72.35,16,16,0,0,1-6.9,1.05,17.22,17.22,0,0,1-7.8-2.2c-2.43-1.46-3.57-3.31-3.4-5l-.36,3.57C343.48,427.48,344.62,429.32,347.05,430.77Z" style="fill:#dbdbdb"></path><path d="M362.1,428.37l-.21,2.08-14.54-8.71.36-3.56,15.78,9.45a6.76,6.76,0,0,1-.66.39C362.59,428.15,362.35,428.26,362.1,428.37Z" style="fill:#B0BEC5"></path><path d="M347.71,418.18c-.25.1-.5.22-.74.34s-.45.25-.67.39l15.8,9.46c.25-.11.49-.22.73-.35a6.76,6.76,0,0,0,.66-.39Z" style="fill:#dbdbdb"></path><polygon points="346.31 418.91 345.95 422.47 361.75 431.93 362.1 428.37 346.31 418.91" style="fill:#dbdbdb"></polygon><path d="M354.59,417.13a15.76,15.76,0,0,0-6.88,1.05l15.78,9.45a6.76,6.76,0,0,1-.66.39c-.24.13-.48.24-.73.35l-15.8-9.46c-3.43,2.23-3,5.83,1.11,8.3a17.35,17.35,0,0,0,7.8,2.21,15.78,15.78,0,0,0,6.89-1.05c.25-.11.49-.22.73-.35a6.76,6.76,0,0,0,.66-.39c3.44-2.23,3-5.83-1.1-8.3A17.22,17.22,0,0,0,354.59,417.13Z" style="fill:#fff"></path><path d="M280.54,417.4l-.05,4.15a1.09,1.09,0,0,1-.32.72c-.72.82-2.56,1.47-4.95,1.84a36.86,36.86,0,0,1-7.29.33l-1-.07-1-.1c-4.46-.49-7.37-1.71-7.36-3l.06-4.13c0,1.28,2.91,2.5,7.36,3,.31.05.66.08,1,.1l1,.08a35.47,35.47,0,0,0,7.29-.33c2.38-.38,4.23-1,5-1.85A1.05,1.05,0,0,0,280.54,417.4Z" style="fill:#dbdbdb"></path><path d="M267,420.23l-.06,4.14-1-.1.05-4.14Z" style="fill:#dbdbdb"></path><path d="M271.21,414.23l1,.07q.51,0,1,.09l-5.2,5.9-1-.06-1-.1Z" style="fill:#dbdbdb"></path><polygon points="273.2 414.39 273.14 418.53 267.94 424.44 268 420.29 273.2 414.39" style="fill:#dbdbdb"></polygon><path d="M263.94,414.55a35.27,35.27,0,0,1,7.27-.32l-5.21,5.9,1,.1,1,.06,5.2-5.9c5.27.58,8.39,2.2,7,3.74-.72.82-2.56,1.46-5,1.84a35.31,35.31,0,0,1-7.27.32l-1-.06-1-.1c-5.28-.58-8.39-2.19-7-3.74C259.7,415.57,261.54,414.93,263.94,414.55Z" style="fill:#fff"></path><path d="M307.57,417.72l.06,4.14a1,1,0,0,0,.32.72c.72.82,2.56,1.47,4.95,1.85a36.79,36.79,0,0,0,7.28.33l1-.08c.32,0,.66-.05,1-.1,4.46-.49,7.37-1.71,7.35-3l0-4.14c0,1.29-2.91,2.51-7.36,3l-1,.1-1,.07a34,34,0,0,1-7.28-.33c-2.39-.37-4.23-1-4.95-1.84A1,1,0,0,1,307.57,417.72Z" style="fill:#dbdbdb"></path><path d="M321.13,420.54l.05,4.14c.33,0,.67-.06,1-.09l-.06-4.14Z" style="fill:#dbdbdb"></path><path d="M316.91,414.54l-1,.07-1,.09,5.2,5.91,1-.07,1-.09Z" style="fill:#dbdbdb"></path><polygon points="314.92 414.7 314.97 418.85 320.18 424.75 320.12 420.61 314.92 414.7" style="fill:#dbdbdb"></polygon><path d="M324.17,414.86a35.92,35.92,0,0,0-7.26-.32l5.2,5.91-1,.09-1,.07-5.2-5.91c-5.28.59-8.39,2.2-7,3.74.72.82,2.56,1.47,4.95,1.84a35.37,35.37,0,0,0,7.28.33l1-.07,1-.09c5.29-.58,8.4-2.2,7-3.74C328.42,415.89,326.57,415.24,324.17,414.86Z" style="fill:#fff"></path><path d="M282.36,438.14l.05,4.15a1,1,0,0,0,.32.72c.72.82,2.56,1.46,4.95,1.84a36.79,36.79,0,0,0,7.28.33l1-.07,1-.1c4.46-.49,7.37-1.72,7.36-3l-.06-4.13c0,1.28-2.91,2.5-7.36,3l-1,.1-1,.07a34.08,34.08,0,0,1-7.29-.33c-2.39-.37-4.23-1-4.95-1.84A1.05,1.05,0,0,1,282.36,438.14Z" style="fill:#dbdbdb"></path><path d="M295.91,441l.06,4.15,1-.1-.06-4.14Z" style="fill:#dbdbdb"></path><path d="M291.69,435l-1,.07-1,.1,5.2,5.9,1-.07,1-.09Z" style="fill:#dbdbdb"></path><polygon points="289.7 435.13 289.75 439.27 294.96 445.17 294.9 441.03 289.7 435.13" style="fill:#dbdbdb"></polygon><path d="M299,435.29a35.27,35.27,0,0,0-7.27-.33l5.2,5.91-1,.09-1,.07-5.2-5.9c-5.27.58-8.39,2.19-7,3.74.72.81,2.56,1.46,4.95,1.84a36.16,36.16,0,0,0,7.28.32l1-.07,1-.09c5.29-.58,8.4-2.2,7-3.74C303.2,436.31,301.35,435.67,299,435.29Z" style="fill:#fff"></path></g><g id="freepik--Bottle--inject-38"><path d="M387.26,347.8h34.65a8.48,8.48,0,0,1,8.48,8.48v76.26a3.17,3.17,0,0,1-3.17,3.17H382a3.17,3.17,0,0,1-3.17-3.17V356.27A8.48,8.48,0,0,1,387.26,347.8Z" style="fill:#B0BEC5"></path><rect x="389.65" y="336.64" width="29.88" height="13.69" style="fill:#B0BEC5"></rect><rect x="378.79" y="376.43" width="51.6" height="34.79" style="fill:#ebebeb"></rect><rect x="378.79" y="404.11" width="51.6" height="3.15" style="fill:#455a64"></rect><rect x="378.79" y="380.4" width="51.6" height="3.15" style="fill:#455a64"></rect><rect x="387.57" y="327.06" width="34.04" height="12.68" style="fill:#455a64"></rect><rect x="385.78" y="339.73" width="37.61" height="3.75" style="fill:#37474f"></rect><rect x="389.29" y="328.83" width="1.56" height="9.14" rx="0.56" style="fill:#37474f"></rect><rect x="392.19" y="328.83" width="1.56" height="9.14" rx="0.56" style="fill:#37474f"></rect><path d="M395.65,328.83h.45a.55.55,0,0,1,.55.55v8a.56.56,0,0,1-.56.56h-.45a.56.56,0,0,1-.56-.56v-8A.56.56,0,0,1,395.65,328.83Z" style="fill:#37474f"></path><rect x="398" y="328.83" width="1.56" height="9.14" rx="0.56" style="fill:#37474f"></rect><rect x="400.91" y="328.83" width="1.56" height="9.14" rx="0.56" style="fill:#37474f"></rect><path d="M404.36,328.83h.45a.56.56,0,0,1,.56.56v8a.56.56,0,0,1-.56.56h-.45a.55.55,0,0,1-.55-.55v-8A.56.56,0,0,1,404.36,328.83Z" style="fill:#37474f"></path><rect x="406.71" y="328.83" width="1.56" height="9.14" rx="0.56" style="fill:#37474f"></rect><rect x="409.62" y="328.83" width="1.56" height="9.14" rx="0.56" style="fill:#37474f"></rect><path d="M413.08,328.83h.45a.56.56,0,0,1,.56.56v8a.56.56,0,0,1-.56.56h-.45a.55.55,0,0,1-.55-.55v-8A.56.56,0,0,1,413.08,328.83Z" style="fill:#37474f"></path><rect x="415.42" y="328.83" width="1.56" height="9.14" rx="0.56" style="fill:#37474f"></rect><rect x="418.33" y="328.83" width="1.56" height="9.14" rx="0.56" style="fill:#37474f"></rect></g><g id="freepik--Syringe--inject-38"><rect x="156.11" y="440.21" width="28.99" height="3.83" transform="translate(614.41 275.93) rotate(90.57)" style="fill:#B0BEC5"></rect><rect x="156.11" y="440.21" width="28.99" height="3.83" transform="translate(614.41 275.93) rotate(90.57)" style="opacity:0.1"></rect><rect x="135.71" y="440.43" width="17.75" height="3.83" transform="translate(588.35 302.19) rotate(90.57)" style="fill:#B0BEC5"></rect><rect x="135.71" y="440.43" width="17.75" height="3.83" transform="translate(588.35 302.19) rotate(90.57)" style="opacity:0.1"></rect><rect x="152.88" y="431.37" width="9.42" height="22.2" transform="translate(601.62 289.3) rotate(90.57)" style="fill:#B0BEC5"></rect><polygon points="165.06 447.26 166.37 437.85 168.74 437.88 168.64 447.29 165.06 447.26" style="opacity:0.2"></polygon><path d="M253.92,443c3.85-.09,7.7-.11,11.56-.13l11.55,0,11.55.19,5.77.15c1.93.07,3.85.12,5.78.22-1.93.05-3.85.06-5.78.1l-5.78,0-11.55,0-11.55-.19C261.62,443.23,257.77,443.13,253.92,443Z" style="fill:#263238"></path><rect x="201.52" y="403.16" width="20.75" height="78.75" transform="translate(656.52 235.07) rotate(90.57)" style="fill:#B0BEC5"></rect><rect x="201.52" y="403.16" width="20.75" height="78.75" transform="translate(656.52 235.07) rotate(90.57)" style="fill:#fff;opacity:0.6000000000000001"></rect><rect x="206.11" y="405.04" width="15.29" height="75.02" transform="translate(658.42 233.23) rotate(90.57)" style="fill:#B0BEC5"></rect><rect x="241.06" y="434.98" width="3.86" height="0.46" transform="translate(680.59 196.56) rotate(90.57)" style="fill:#263238"></rect><rect x="239.51" y="434.96" width="3.86" height="0.46" transform="translate(679.02 198.12) rotate(90.57)" style="fill:#263238"></rect><rect x="237.96" y="434.95" width="3.86" height="0.46" transform="translate(677.44 199.65) rotate(90.57)" style="fill:#263238"></rect><rect x="236.41" y="434.93" width="3.86" height="0.46" transform="translate(675.86 201.19) rotate(90.57)" style="fill:#263238"></rect><rect x="233.43" y="436.33" width="6.69" height="0.46" transform="translate(675.68 204.15) rotate(90.57)" style="fill:#263238"></rect><rect x="233.39" y="434.9" width="3.86" height="0.46" transform="translate(672.78 204.18) rotate(90.57)" style="fill:#263238"></rect><rect x="231.84" y="434.89" width="3.86" height="0.46" transform="translate(671.2 205.71) rotate(90.57)" style="fill:#263238"></rect><rect x="230.29" y="434.87" width="3.86" height="0.46" transform="translate(669.62 207.23) rotate(90.57)" style="fill:#263238"></rect><rect x="228.74" y="434.85" width="3.86" height="0.46" transform="matrix(-0.01, 1, -1, -0.01, 668.04, 208.77)" style="fill:#263238"></rect><rect x="225.76" y="436.26" width="6.69" height="0.46" transform="translate(667.86 211.75) rotate(90.57)" style="fill:#263238"></rect><rect x="225.72" y="434.82" width="3.86" height="0.46" transform="translate(664.96 211.77) rotate(90.57)" style="fill:#263238"></rect><rect x="224.17" y="434.81" width="3.86" height="0.46" transform="translate(663.37 213.28) rotate(90.57)" style="fill:#263238"></rect><rect x="222.63" y="434.79" width="3.86" height="0.46" transform="translate(661.79 214.81) rotate(90.57)" style="fill:#263238"></rect><rect x="221.08" y="434.78" width="3.86" height="0.46" transform="translate(660.22 216.37) rotate(90.57)" style="fill:#263238"></rect><rect x="218.1" y="436.18" width="6.69" height="0.46" transform="translate(660.04 219.34) rotate(90.57)" style="fill:#263238"></rect><rect x="218.05" y="434.75" width="3.86" height="0.46" transform="translate(657.14 219.36) rotate(90.57)" style="fill:#263238"></rect><rect x="216.51" y="434.73" width="3.86" height="0.46" transform="translate(655.55 220.87) rotate(90.57)" style="fill:#263238"></rect><rect x="214.96" y="434.72" width="3.86" height="0.46" transform="translate(653.98 222.42) rotate(90.57)" style="fill:#263238"></rect><rect x="213.41" y="434.7" width="3.86" height="0.46" transform="translate(652.39 223.93) rotate(90.57)" style="fill:#263238"></rect><rect x="210.43" y="436.1" width="6.69" height="0.46" transform="translate(652.22 226.92) rotate(90.57)" style="fill:#263238"></rect><rect x="210.39" y="434.67" width="3.86" height="0.46" transform="translate(649.31 226.94) rotate(90.57)" style="fill:#263238"></rect><rect x="208.84" y="434.66" width="3.86" height="0.46" transform="translate(647.73 228.46) rotate(90.57)" style="fill:#263238"></rect><rect x="207.29" y="434.64" width="3.86" height="0.46" transform="translate(646.16 230.01) rotate(90.57)" style="fill:#263238"></rect><rect x="205.74" y="434.62" width="3.86" height="0.46" transform="translate(644.57 231.52) rotate(90.57)" style="fill:#263238"></rect><rect x="202.76" y="436.03" width="6.69" height="0.46" transform="translate(644.4 234.52) rotate(90.57)" style="fill:#263238"></rect><rect x="202.72" y="434.59" width="3.86" height="0.46" transform="translate(641.49 234.53) rotate(90.57)" style="fill:#263238"></rect><rect x="201.17" y="434.58" width="3.86" height="0.46" transform="translate(639.92 236.07) rotate(90.57)" style="fill:#263238"></rect><rect x="199.62" y="434.56" width="3.86" height="0.46" transform="translate(638.34 237.6) rotate(90.57)" style="fill:#263238"></rect><rect x="198.07" y="434.55" width="3.86" height="0.46" transform="translate(636.75 239.12) rotate(90.57)" style="fill:#263238"></rect><rect x="195.09" y="435.95" width="6.69" height="0.46" transform="translate(636.58 242.12) rotate(90.57)" style="fill:#263238"></rect><rect x="195.05" y="434.52" width="3.86" height="0.46" transform="translate(633.67 242.11) rotate(90.57)" style="fill:#263238"></rect><rect x="193.5" y="434.5" width="3.86" height="0.46" transform="translate(632.09 243.65) rotate(90.57)" style="fill:#263238"></rect><rect x="191.95" y="434.49" width="3.86" height="0.46" transform="translate(630.51 245.18) rotate(90.57)" style="fill:#263238"></rect><rect x="190.4" y="434.47" width="3.86" height="0.46" transform="translate(628.93 246.72) rotate(90.57)" style="fill:#263238"></rect><rect x="187.42" y="435.87" width="6.69" height="0.46" transform="translate(628.76 249.7) rotate(90.57)" style="fill:#263238"></rect><rect x="187.38" y="434.44" width="3.86" height="0.46" transform="translate(625.85 249.71) rotate(90.57)" style="fill:#263238"></rect><rect x="185.83" y="434.43" width="3.86" height="0.46" transform="translate(624.27 251.24) rotate(90.57)" style="fill:#263238"></rect><rect x="184.29" y="434.41" width="3.86" height="0.46" transform="translate(622.68 252.75) rotate(90.57)" style="fill:#263238"></rect><rect x="182.74" y="434.4" width="3.86" height="0.46" transform="translate(621.12 254.32) rotate(90.57)" style="fill:#263238"></rect><rect x="179.76" y="435.8" width="6.69" height="0.46" transform="translate(620.93 257.28) rotate(90.57)" style="fill:#263238"></rect><rect x="179.72" y="434.36" width="3.86" height="0.46" transform="translate(618.02 257.29) rotate(90.57)" style="fill:#263238"></rect><rect x="178.17" y="434.35" width="3.86" height="0.46" transform="translate(616.45 258.84) rotate(90.57)" style="fill:#263238"></rect><rect x="176.62" y="434.33" width="3.86" height="0.46" transform="translate(614.87 260.36) rotate(90.57)" style="fill:#263238"></rect><rect x="175.07" y="434.32" width="3.86" height="0.46" transform="translate(613.29 261.91) rotate(90.57)" style="fill:#263238"></rect><rect x="172.09" y="435.72" width="6.69" height="0.46" transform="translate(613.11 264.88) rotate(90.57)" style="fill:#263238"></rect><rect x="237.92" y="439.93" width="20.75" height="5.94" transform="translate(693.65 199.03) rotate(90.57)" style="fill:#263238"></rect><rect x="247.66" y="439.56" width="14.02" height="6.8" transform="translate(700.15 192.73) rotate(90.57)" style="fill:#B0BEC5"></rect><polygon points="266.2 444.88 266.23 441.27 258.09 440.54 258.04 445.45 266.2 444.88" style="fill:#B0BEC5"></polygon><polygon points="258.04 445.45 258.09 440.55 260.4 440.75 260 445.31 258.04 445.45" style="opacity:0.1"></polygon></g></svg>