<svg id="SvgjsSvg1013" width="288" height="288" xmlns="http://www.w3.org/2000/svg" version="1.1" xmlns:xlink="http://www.w3.org/1999/xlink" xmlns:svgjs="http://svgjs.com/svgjs"><defs id="SvgjsDefs1014"></defs><g id="SvgjsG1015" transform="matrix(1,0,0,1,0,0)"><svg xmlns="http://www.w3.org/2000/svg" viewBox="141.588 182.284 258.238 103.724" width="288" height="288"><path fill="#000000" style="white-space:pre" d="M 264.967 121.299 L 268.017 130.619 L 268.267 130.619 L 271.797 121.419 L 275.137 121.519 L 275.237 131.929 L 275.697 138.169 L 272.427 138.169 L 272.547 131.879 L 272.277 125.509 L 269.377 133.519 L 266.397 133.669 L 263.687 125.509 L 263.467 131.879 L 263.637 138.169 L 260.637 138.169 L 260.977 132.289 L 261.127 121.909 L 264.967 121.299 ZM 282.902 135.699 C 283.369 135.699 283.862 135.579 284.382 135.339 C 284.896 135.099 285.299 134.856 285.592 134.609 L 286.022 134.249 L 287.132 135.599 C 286.972 135.879 286.722 136.196 286.382 136.549 C 286.049 136.902 285.709 137.206 285.362 137.459 C 285.016 137.706 284.556 137.929 283.982 138.129 C 283.409 138.336 282.816 138.439 282.202 138.439 C 280.896 138.439 279.829 137.942 279.002 136.949 C 278.182 135.956 277.772 134.676 277.772 133.109 C 277.772 131.142 278.346 129.416 279.492 127.929 C 280.639 126.449 281.976 125.709 283.502 125.709 C 284.682 125.709 285.599 126.039 286.252 126.699 C 286.906 127.359 287.232 128.286 287.232 129.479 C 287.232 130.192 287.112 130.999 286.872 131.899 L 286.382 132.409 L 280.332 132.969 C 280.612 134.789 281.469 135.699 282.902 135.699 Z M 282.902 128.199 C 282.189 128.199 281.592 128.486 281.112 129.059 C 280.626 129.632 280.342 130.362 280.262 131.249 L 284.382 130.739 C 284.429 130.366 284.452 130.059 284.452 129.819 C 284.452 128.739 283.936 128.199 282.902 128.199 ZM 295.724 135.799 C 294.464 137.379 293.377 138.169 292.464 138.169 C 291.317 138.169 290.377 137.702 289.644 136.769 C 288.904 135.829 288.534 134.626 288.534 133.159 C 288.534 131.146 289.097 129.442 290.224 128.049 C 291.344 126.662 292.717 125.969 294.344 125.969 L 295.704 126.169 L 295.704 125.709 L 295.414 120.039 L 298.724 119.439 L 298.414 131.879 L 298.414 134.009 C 298.414 134.976 298.654 136.089 299.134 137.349 L 296.524 138.439 C 296.057 137.466 295.791 136.586 295.724 135.799 Z M 291.254 131.899 C 291.254 132.932 291.441 133.739 291.814 134.319 C 292.194 134.899 292.744 135.189 293.464 135.189 C 294.184 135.189 294.931 134.899 295.704 134.319 L 295.704 129.099 C 294.737 128.899 294.017 128.799 293.544 128.799 C 292.824 128.799 292.261 129.059 291.854 129.579 C 291.454 130.092 291.254 130.866 291.254 131.899 ZM 301.481 126.459 L 304.731 125.849 L 304.441 131.879 L 304.701 137.569 L 301.461 138.169 L 301.751 132.289 L 301.481 126.459 Z M 301.311 122.309 C 301.311 121.769 301.521 121.282 301.941 120.849 C 302.361 120.422 302.848 120.209 303.401 120.209 C 303.948 120.209 304.364 120.359 304.651 120.659 C 304.944 120.959 305.091 121.406 305.091 121.999 C 305.091 122.599 304.884 123.112 304.471 123.539 C 304.064 123.966 303.588 124.179 303.041 124.179 C 302.501 124.179 302.078 124.002 301.771 123.649 C 301.464 123.296 301.311 122.849 301.311 122.309 ZM 312.255 131.729 L 310.875 131.729 L 310.875 131.879 L 311.165 138.169 L 307.925 138.169 L 308.215 132.289 L 307.925 121.469 L 313.175 121.469 C 314.722 121.469 315.955 121.889 316.875 122.729 C 317.795 123.569 318.255 124.682 318.255 126.069 C 318.255 127.116 317.985 128.072 317.445 128.939 C 316.905 129.799 316.175 130.479 315.255 130.979 L 319.465 136.939 L 316.535 138.439 L 312.765 131.709 C 312.652 131.722 312.482 131.729 312.255 131.729 Z M 312.305 123.919 L 311.115 123.919 L 310.945 129.389 L 312.595 129.389 C 313.402 129.389 314.025 129.122 314.465 128.589 C 314.912 128.056 315.135 127.296 315.135 126.309 C 315.135 124.716 314.192 123.919 312.305 123.919 ZM 325.755 135.699 C 326.222 135.699 326.715 135.579 327.235 135.339 C 327.749 135.099 328.152 134.856 328.445 134.609 L 328.875 134.249 L 329.985 135.599 C 329.825 135.879 329.575 136.196 329.235 136.549 C 328.902 136.902 328.562 137.206 328.215 137.459 C 327.869 137.706 327.409 137.929 326.835 138.129 C 326.262 138.336 325.669 138.439 325.055 138.439 C 323.749 138.439 322.682 137.942 321.855 136.949 C 321.035 135.956 320.625 134.676 320.625 133.109 C 320.625 131.142 321.199 129.416 322.345 127.929 C 323.492 126.449 324.829 125.709 326.355 125.709 C 327.535 125.709 328.452 126.039 329.105 126.699 C 329.759 127.359 330.085 128.286 330.085 129.479 C 330.085 130.192 329.965 130.999 329.725 131.899 L 329.235 132.409 L 323.185 132.969 C 323.465 134.789 324.322 135.699 325.755 135.699 Z M 325.755 128.199 C 325.042 128.199 324.445 128.486 323.965 129.059 C 323.479 129.632 323.195 130.362 323.115 131.249 L 327.235 130.739 C 327.282 130.366 327.305 130.059 327.305 129.819 C 327.305 128.739 326.789 128.199 325.755 128.199 ZM 338.657 125.949 C 339.684 125.949 340.55 126.399 341.257 127.299 C 341.957 128.206 342.307 129.426 342.307 130.959 C 342.307 133.106 341.754 134.842 340.647 136.169 C 339.54 137.502 338.167 138.169 336.527 138.169 C 336.187 138.169 335.807 138.146 335.387 138.099 L 335.507 142.719 L 332.187 143.319 L 332.507 132.289 L 332.527 132.289 C 332.467 130.129 332.29 128.192 331.997 126.479 L 334.927 125.849 C 335.02 126.702 335.1 127.549 335.167 128.389 C 335.2 128.309 335.367 128.089 335.667 127.729 C 335.96 127.362 336.4 126.976 336.987 126.569 C 337.567 126.156 338.124 125.949 338.657 125.949 Z M 337.707 129.099 C 336.854 129.099 336.024 129.332 335.217 129.799 L 335.217 131.879 L 335.317 135.339 C 336.184 135.486 336.844 135.559 337.297 135.559 C 338.844 135.559 339.617 134.482 339.617 132.329 C 339.617 130.176 338.98 129.099 337.707 129.099 ZM 343.59 133.109 C 343.59 131.042 344.146 129.292 345.26 127.859 C 346.373 126.426 347.676 125.709 349.17 125.709 C 350.656 125.709 351.816 126.192 352.65 127.159 C 353.483 128.126 353.9 129.409 353.9 131.009 C 353.9 133.136 353.363 134.906 352.29 136.319 C 351.216 137.732 349.863 138.439 348.23 138.439 C 346.896 138.439 345.79 137.932 344.91 136.919 C 344.03 135.912 343.59 134.642 343.59 133.109 Z M 351.19 132.269 C 351.19 129.929 350.39 128.759 348.79 128.759 C 347.13 128.759 346.3 129.856 346.3 132.049 C 346.3 133.196 346.533 134.089 347 134.729 C 347.466 135.376 348.083 135.699 348.85 135.699 C 349.616 135.699 350.196 135.406 350.59 134.819 C 350.99 134.232 351.19 133.382 351.19 132.269 Z" transform="matrix(1.94385 0 0 3.41301 -289.421 -210.425)" class="color115293 svgShape"></path><path style="" fill="#000000" d="M18.0002 20.5C18.2762 20.5 18.5002 20.275 18.5002 20V10H14.0002C12.8962 10 12.0002 9.104 12.0002 8V3.5H6.00024C5.72424 3.5 5.50024 3.725 5.50024 4V11.3107C5.00752 11.2012 4.49985 11.176 4.00024 11.235V4C4.00024 2.896 4.89624 2 6.00024 2H12.1722C12.2001 2 12.2273 2.00371 12.2544 2.00741C12.274 2.01008 12.2935 2.01274 12.3132 2.014C12.5282 2.029 12.7402 2.07 12.9372 2.152C12.9946 2.17648 13.049 2.20797 13.1032 2.23933C13.1198 2.2489 13.1367 2.25866 13.1532 2.268C13.1687 2.27647 13.1847 2.28426 13.2008 2.29207C13.2283 2.30547 13.256 2.31894 13.2812 2.336C13.3592 2.389 13.4292 2.452 13.5002 2.516C13.5117 2.52619 13.5241 2.53565 13.5365 2.54516C13.5533 2.55804 13.5703 2.57105 13.5852 2.586L19.4142 8.414C19.7892 8.789 20.0002 9.298 20.0002 9.828V20C20.0002 21.104 19.1042 22 18.0002 22H9.48954L10.9895 20.5H18.0002ZM17.3782 8.5L13.5002 4.621V8C13.5002 8.275 13.7242 8.5 14.0002 8.5H17.3782ZM6.48422 22.5303C6.63065 22.6768 6.82261 22.75 7.01461 22.75C7.2066 22.75 7.39857 22.6768 7.54499 22.5303L11.9533 18.122C13.3071 16.7682 13.3071 14.5732 11.9533 13.2194C10.5994 11.8655 8.40444 11.8655 7.0506 13.2194L7.01461 13.2554L6.97861 13.2194C5.62477 11.8655 3.42977 11.8655 2.07593 13.2194C0.722088 14.5732 0.722087 16.7682 2.07593 18.122L6.48422 22.5303Z" transform="matrix(3.5308 0 0 3.61957 137.843 184.412)" class="color115293 svgShape"></path></svg></g></svg>