<svg xmlns="http://www.w3.org/2000/svg" xmlns:xlink="http://www.w3.org/1999/xlink" viewBox="0 0 500 500"><defs><clipPath id="freepik--clip-path--inject-43"><path d="M307,255.56s3.35,29.47,18.75,36.84,24.12-4,24.12-14.4,17.41-20.09,30.14-20.09,16.41,17.08,11,31.14S379,319.86,353.91,327.9s-39.85-2.68-39.85-2.68,3.69,7.37,0,8.37S300,323.21,300,323.21s4.69,10.05-.67,6.7-11.05-23.11-11.05-23.11.33,7-4,7.7-6.7-14.4-6.7-14.4l27.8-51.23Z" style="fill:#fff;stroke:#263238;stroke-linecap:round;stroke-linejoin:round;stroke-width:1.203545615328031px"></path></clipPath><clipPath id="freepik--clip-path-2--inject-43"><path d="M203.39,311.41v70.75s-20.72,14.86-30.1,18.76-24.24-5.47-33.23,2S134.2,422,145.14,423.2c0,0,0,6.26,5.48,9a14.08,14.08,0,0,0,10.94.4s.78,9.38,12.12,8.6,14.07-9.78,20.32-18.77,10.17-17.2,19.55-18.37,15.24-3.13,15.24-14.46c0-7-7-7.43-7.81-14.46s0-61,0-61Z" style="fill:#fff;stroke:#263238;stroke-linecap:round;stroke-linejoin:round;stroke-width:1.203545615328031px"></path></clipPath><clipPath id="freepik--clip-path-3--inject-43"><path d="M265,311.41v70.75s20.72,14.86,30.1,18.76,24.23-5.47,33.22,2,5.87,19.15-5.08,20.32c0,0,0,6.26-5.47,9a14.11,14.11,0,0,1-10.95.4s-.78,9.38-12.11,8.6-14.08-9.78-20.33-18.77-10.16-17.2-19.54-18.37-15.25-3.13-15.25-14.46c0-7,7-7.43,7.82-14.46s0-61,0-61Z" style="fill:#fff;stroke:#263238;stroke-linecap:round;stroke-linejoin:round;stroke-width:1.203545615328031px"></path></clipPath><clipPath id="freepik--clip-path-4--inject-43"><path d="M165.17,241.59s-9.79,8.22-15.27,25.44-7.44,25.06-2,23.89,7.44-7.83,7.44-7.83-6.66,19.57-3.13,21.14,8.22-2,8.22-2S158.9,319.5,162,324.59s4.3,5.09,4.3,5.09V361s-9.39-2.35-17.22,1.56-8.62,9.79-8.62,9.79-3.52-18.79-11.35-21.53-7.83,14.48-3.53,24.27,17.62,14.1,18.8,14.1-2.35,3.13-2.35,3.13l10.57-2.74s-5.09,5.87-1.57,5.87S166,389.58,166,389.58s-3.91,4.7.78,4.7,11.36-7,11.36-7,0,3.52,4.3-.78,13.71-3.53,15.66-29,0-57.55,0-57.55S188.66,224.75,165.17,241.59Z" style="fill:#fff;stroke:#263238;stroke-linecap:round;stroke-linejoin:round;stroke-width:1.203545615328031px"></path></clipPath><clipPath id="freepik--clip-path-5--inject-43"><path d="M171.58,202.78s-11.2,17.22-31.44,22.39-37.9,3.45-37.47,4.74,7.32,5.6,7.32,5.6-6.46-.44-5.59,1.72,6.89,12.06,27.13,17.22,32.73-21.53,36.6-33.16S175,201.05,171.58,202.78Z" style="fill:#fff;stroke:#263238;stroke-linecap:round;stroke-linejoin:round;stroke-width:1.203545615328031px"></path></clipPath><clipPath id="freepik--clip-path-6--inject-43"><path d="M297.4,201.1s11.2,17.23,31.44,22.4,37.9,3.44,37.47,4.73-7.33,5.6-7.33,5.6,6.46-.43,5.6,1.72-6.89,12.06-27.13,17.23-32.73-21.53-36.6-33.16S294,199.38,297.4,201.1Z" style="fill:#fff;stroke:#263238;stroke-linecap:round;stroke-linejoin:round;stroke-width:1.203545615328031px"></path></clipPath><clipPath id="freepik--clip-path-7--inject-43"><ellipse cx="235.65" cy="242.41" rx="73.4" ry="82.73" style="fill:#fff;stroke:#263238;stroke-linecap:round;stroke-linejoin:round;stroke-width:1.203545615328031px"></ellipse></clipPath><clipPath id="freepik--clip-path-8--inject-43"><path d="M260.61,291.31a6.12,6.12,0,0,1-5.38-3.2c-.29-.51-6.15-10.78-17.81-10.78s-20.65,11.15-20.73,11.26a6.13,6.13,0,0,1-9.69-7.5c.51-.65,12.62-16,30.42-16,19.13,0,28.21,16.5,28.58,17.21a6.13,6.13,0,0,1-5.39,9Z" style="fill:#263238;stroke:#263238;stroke-linecap:round;stroke-linejoin:round;stroke-width:1.203545615328031px"></path></clipPath></defs><g id="freepik--background-simple--inject-43"><path d="M270.56,49.52s-71-8.67-126.41,43S73.86,225.46,60.07,290.94s16.52,122.11,72.08,138.55,79.3-31.56,147.63-49,89.18-11.73,137-63.63,36.26-146.49-25-204.62S270.56,49.52,270.56,49.52Z" style="fill:#9FD4A5"></path><path d="M270.56,49.52s-71-8.67-126.41,43S73.86,225.46,60.07,290.94s16.52,122.11,72.08,138.55,79.3-31.56,147.63-49,89.18-11.73,137-63.63,36.26-146.49-25-204.62S270.56,49.52,270.56,49.52Z" style="fill:#fff;opacity:0.7000000000000001"></path></g><g id="freepik--Landscape--inject-43"><path d="M66.23,367.78c29.33-9,91.05-26.84,125.11-28.18,45.76-1.81,123.13,34.24,171.38,40.54s80.7,4.51,80.7,4.51" style="fill:none;stroke:#263238;stroke-linecap:round;stroke-linejoin:round;stroke-width:1.203545615328031px"></path><path d="M49.91,372.93s2.54-.83,7-2.24" style="fill:none;stroke:#263238;stroke-linecap:round;stroke-linejoin:round;stroke-width:1.203545615328031px"></path><path d="M430.39,316.77a196.62,196.62,0,0,0-51.51-5.27c-35.79,1.29-74.48,6.43-122.4,13.11S140.39,294.35,94,308.06s-42.87,17.83-42.87,17.83" style="fill:none;stroke:#263238;stroke-linecap:round;stroke-linejoin:round;stroke-width:1.203545615328031px"></path><path d="M443.58,320.49s-1.8-.65-5.07-1.59" style="fill:none;stroke:#263238;stroke-linecap:round;stroke-linejoin:round;stroke-width:1.203545615328031px"></path></g><g id="freepik--Clouds--inject-43"><path d="M287.11,91.5a10.44,10.44,0,0,0-20.28,0Z" style="fill:none;stroke:#263238;stroke-linecap:round;stroke-linejoin:round;stroke-width:1.203545615328031px"></path><path d="M389.56,91.5a12.94,12.94,0,0,0-11.1-9.86,30.83,30.83,0,0,0,.51-5.56,30.35,30.35,0,0,0-60.22-5.34A19.38,19.38,0,0,0,288.22,91.5Z" style="fill:none;stroke:#263238;stroke-linecap:round;stroke-linejoin:round;stroke-width:1.203545615328031px"></path><path d="M106.65,115.85a5.3,5.3,0,0,0-10.3,0Z" style="fill:none;stroke:#263238;stroke-linecap:round;stroke-linejoin:round;stroke-width:1.203545615328031px"></path><path d="M158.66,115.85a6.58,6.58,0,0,0-5.64-5,15.41,15.41,0,1,0-30.31-5.53,9.84,9.84,0,0,0-15.5,10.54Z" style="fill:none;stroke:#263238;stroke-linecap:round;stroke-linejoin:round;stroke-width:1.203545615328031px"></path><path d="M153.42,132.13a3.35,3.35,0,0,0-6.5,0Z" style="fill:none;stroke:#263238;stroke-linecap:round;stroke-linejoin:round;stroke-width:1.203545615328031px"></path><path d="M186.25,132.13a4.17,4.17,0,0,0-3.56-3.16,9.43,9.43,0,0,0,.16-1.78,9.72,9.72,0,0,0-19.29-1.71,6.22,6.22,0,0,0-9.79,6.65Z" style="fill:none;stroke:#263238;stroke-linecap:round;stroke-linejoin:round;stroke-width:1.203545615328031px"></path></g><g id="freepik--Character--inject-43"><path d="M343.33,404.94h-1c-15.83-14.57-59.64-25-111.21-25-64.9,0-117.51,16.59-117.51,37s52.61,37,117.51,37c43.18,0,80.92-7.34,101.35-18.28,3.51.17,7.13.26,10.83.26,32.94,0,59.65-7,59.65-15.52S376.27,404.94,343.33,404.94Z" style="fill:#9FD4A5"></path><path d="M343.33,404.94h-1c-15.83-14.57-59.64-25-111.21-25-64.9,0-117.51,16.59-117.51,37s52.61,37,117.51,37c43.18,0,80.92-7.34,101.35-18.28,3.51.17,7.13.26,10.83.26,32.94,0,59.65-7,59.65-15.52S376.27,404.94,343.33,404.94Z" style="fill:#fff;opacity:0.5"></path><path d="M307,255.56s3.35,29.47,18.75,36.84,24.12-4,24.12-14.4,17.41-20.09,30.14-20.09,16.41,17.08,11,31.14S379,319.86,353.91,327.9s-39.85-2.68-39.85-2.68,3.69,7.37,0,8.37S300,323.21,300,323.21s4.69,10.05-.67,6.7-11.05-23.11-11.05-23.11.33,7-4,7.7-6.7-14.4-6.7-14.4l27.8-51.23Z" style="fill:#fff"></path><g style="clip-path:url(#freepik--clip-path--inject-43)"><path d="M366.87,305.89a8,8,0,1,0,0,16h.38a48.5,48.5,0,0,0,7.18-5.33,8.2,8.2,0,0,0,.46-2.68A8,8,0,0,0,366.87,305.89Z" style="fill:#9FD4A5"></path><path d="M349.27,282.84c-2.24,8.63-10.48,15.78-23.49,9.56a17.67,17.67,0,0,1-1.65-.91,16,16,0,1,0,25.14-8.65Z" style="fill:#9FD4A5"></path><path d="M319.08,327.38a11.22,11.22,0,0,0-22.44-.36,10.15,10.15,0,0,0,2.69,2.89c5.36,3.35.67-6.7.67-6.7s10.38,11.39,14.06,10.38,0-8.37,0-8.37a26,26,0,0,0,5,2.58C319.06,327.66,319.08,327.52,319.08,327.38Z" style="fill:#9FD4A5"></path><path d="M389.4,273.19c-6.13,7.8-16.16,40.66-41.78,47.91s-49-9.47-49-9.47,3.9-3.9,11.7-17.27a76.88,76.88,0,0,0,5.54-11.66c-7-11.35-8.81-27.14-8.81-27.14l-1.67-6.69-27.8,51.23s2.35,15.07,6.7,14.4,4-7.7,4-7.7,5.69,19.76,11.05,23.11.67-6.7.67-6.7,10.38,11.39,14.06,10.38,0-8.37,0-8.37,14.74,10.72,39.85,2.68,31.82-24.78,37.18-38.85a35.26,35.26,0,0,0,2.12-16.72C391.54,271.94,390.21,272.15,389.4,273.19Z" style="opacity:0.2"></path></g><path d="M307,255.56s3.35,29.47,18.75,36.84,24.12-4,24.12-14.4,17.41-20.09,30.14-20.09,16.41,17.08,11,31.14S379,319.86,353.91,327.9s-39.85-2.68-39.85-2.68,3.69,7.37,0,8.37S300,323.21,300,323.21s4.69,10.05-.67,6.7-11.05-23.11-11.05-23.11.33,7-4,7.7-6.7-14.4-6.7-14.4l27.8-51.23Z" style="fill:none;stroke:#263238;stroke-linecap:round;stroke-linejoin:round;stroke-width:1.203545615328031px"></path><path d="M383.22,299.43h0a4,4,0,0,1-4-4v-63h8v63A4,4,0,0,1,383.22,299.43Z" style="fill:#fff;stroke:#263238;stroke-linecap:round;stroke-linejoin:round;stroke-width:1.203545615328031px"></path><rect x="328.32" y="129.31" width="110.51" height="107.83" style="fill:#263238;stroke:#263238;stroke-linecap:round;stroke-linejoin:round;stroke-width:1.203545615328031px"></rect><path d="M364.35,152.54v.58h-6v9.4h7.11v.61h-7.75V142.82h7.75v.61h-7.11v9.11Z" style="fill:#fff"></path><path d="M371.78,142.82c3,0,4.18,1.77,4.18,4.56v1.82c0,2.5-1,3.86-3.22,4.27,2.26.35,3.22,1.83,3.22,4.06v3.19a4.22,4.22,0,0,0,.55,2.41h-.7a4.54,4.54,0,0,1-.49-2.41v-3.19c0-3-1.8-3.77-4.44-3.77h-2.5v9.37h-.64V142.82Zm-.9,10.33c2.81,0,4.44-.72,4.44-3.86v-1.86c0-2.46-1-4-3.57-4h-3.37v9.72Z" style="fill:#fff"></path><path d="M382.8,142.82c3,0,4.18,1.77,4.18,4.56v1.82c0,2.5-1,3.86-3.22,4.27,2.27.35,3.22,1.83,3.22,4.06v3.19a4.22,4.22,0,0,0,.56,2.41h-.7a4.54,4.54,0,0,1-.49-2.41v-3.19c0-3-1.8-3.77-4.44-3.77h-2.5v9.37h-.64V142.82Zm-.89,10.33c2.81,0,4.44-.72,4.44-3.86v-1.86c0-2.46-1-4-3.57-4h-3.37v9.72Z" style="fill:#fff"></path><path d="M389.77,147.81c0-3.37,1.48-5.14,4.3-5.14s4.35,1.77,4.35,5.14v10.33c0,3.37-1.48,5.14-4.35,5.14s-4.3-1.77-4.3-5.14Zm.64,10.36c0,3,1.25,4.53,3.66,4.53s3.71-1.54,3.71-4.53V147.78c0-3-1.28-4.52-3.71-4.52s-3.66,1.53-3.66,4.52Z" style="fill:#fff"></path><path d="M404.74,142.82c3,0,4.18,1.77,4.18,4.56v1.82c0,2.5-1,3.86-3.22,4.27,2.27.35,3.22,1.83,3.22,4.06v3.19a4.22,4.22,0,0,0,.56,2.41h-.7a4.54,4.54,0,0,1-.49-2.41v-3.19c0-3-1.8-3.77-4.44-3.77h-2.5v9.37h-.64V142.82Zm-.89,10.33c2.81,0,4.44-.72,4.44-3.86v-1.86c0-2.46-1-4-3.57-4h-3.37v9.72Z" style="fill:#fff"></path><path d="M381.18,277.38s14.17-7.76,20.06-2.68,3.47,13.11-1.07,15-14.44,4.28-19.79,2.41S370.48,282.46,381.18,277.38Z" style="fill:#fff;stroke:#263238;stroke-linecap:round;stroke-linejoin:round;stroke-width:1.203545615328031px"></path><path d="M375,256.9s17.75-9.71,25.12-3.34,4.35,16.4-1.34,18.75-18.08,5.36-24.78,3S361.62,263.27,375,256.9Z" style="fill:#fff;stroke:#263238;stroke-linecap:round;stroke-linejoin:round;stroke-width:1.203545615328031px"></path><path d="M342.36,208.68l14.21-33.61h8.53v33.61h3.7v7.1h-3.7v9h-7.67v-9H342.36Zm15.07,0V190l-7.89,18.69Z" style="fill:#9FD4A5"></path><path d="M371.71,187c0-8,4.19-12.51,11.86-12.51s11.87,4.55,11.87,12.51v25.86c0,8-4.19,12.51-11.87,12.51s-11.86-4.55-11.86-12.51Zm7.81,26.36c0,3.55,1.57,4.9,4.05,4.9s4.05-1.35,4.05-4.9V186.51c0-3.55-1.56-4.9-4.05-4.9s-4.05,1.35-4.05,4.9Z" style="fill:#9FD4A5"></path><path d="M398.64,208.68l14.21-33.61h8.52v33.61h3.7v7.1h-3.7v9H413.7v-9H398.64Zm15.06,0V190l-7.89,18.69Z" style="fill:#9FD4A5"></path><path d="M350.9,284s-3.68-18.75,2.68-29.81,22.1-4,27.13,7.71S382.71,286,373,286s-11.38-15.41-11.38-15.41" style="fill:#fff;stroke:#263238;stroke-linecap:round;stroke-linejoin:round;stroke-width:1.203545615328031px"></path><path d="M377.87,281.66s1,6.39-1.7,10.93a1.91,1.91,0,0,1-2.36.81h0a1.88,1.88,0,0,1-1.18-1.51c-.25-2-.94-6.1-2.55-8.79a4.36,4.36,0,0,1,0-4.49,3.58,3.58,0,0,1,2.56-1.7C376.26,276.3,377.56,277.76,377.87,281.66Z" style="fill:#fff;stroke:#263238;stroke-linecap:round;stroke-linejoin:round;stroke-width:1.203545615328031px"></path><path d="M203.39,311.41v70.75s-20.72,14.86-30.1,18.76-24.24-5.47-33.23,2S134.2,422,145.14,423.2c0,0,0,6.26,5.48,9a14.08,14.08,0,0,0,10.94.4s.78,9.38,12.12,8.6,14.07-9.78,20.32-18.77,10.17-17.2,19.55-18.37,15.24-3.13,15.24-14.46c0-7-7-7.43-7.81-14.46s0-61,0-61Z" style="fill:#fff"></path><g style="clip-path:url(#freepik--clip-path-2--inject-43)"><circle cx="211.3" cy="385.44" r="5.13" style="fill:#9FD4A5"></circle><path d="M210.66,328a4.17,4.17,0,0,0-4.17-4.17,4.12,4.12,0,0,0-3.1,1.41v5.52a4.12,4.12,0,0,0,3.1,1.41A4.17,4.17,0,0,0,210.66,328Z" style="fill:#9FD4A5"></path><path d="M217.71,347.59a6.42,6.42,0,0,0,0,12.83,6.26,6.26,0,0,0,2.92-.74c0-3.53,0-7.41,0-11.35A6.34,6.34,0,0,0,217.71,347.59Z" style="fill:#9FD4A5"></path><path d="M228.79,389.59c0-7-7-7.43-7.81-14.46s0-61,0-61l-17.59-2.74v22.71c3.7,2.33,8.51,4.51,13.32,4.24V379s3.35,8.91,1.12,16.15-19.5,7.24-25.07,13.93-9.47,20.61-15,26.74a37.59,37.59,0,0,1-6.12,5.36,18.22,18.22,0,0,0,2.08,0c11.33-.79,14.07-9.78,20.32-18.77s10.17-17.2,19.55-18.37S228.79,400.92,228.79,389.59Z" style="opacity:0.2"></path></g><path d="M203.39,311.41v70.75s-20.72,14.86-30.1,18.76-24.24-5.47-33.23,2S134.2,422,145.14,423.2c0,0,0,6.26,5.48,9a14.08,14.08,0,0,0,10.94.4s.78,9.38,12.12,8.6,14.07-9.78,20.32-18.77,10.17-17.2,19.55-18.37,15.24-3.13,15.24-14.46c0-7-7-7.43-7.81-14.46s0-61,0-61Z" style="fill:none;stroke:#263238;stroke-linecap:round;stroke-linejoin:round;stroke-width:1.203545615328031px"></path><path d="M161.56,432.59S161.17,418.9,178,413" style="fill:none;stroke:#263238;stroke-linecap:round;stroke-linejoin:round;stroke-width:1.203545615328031px"></path><path d="M145.14,423.2s0-10.94,18.38-15.24" style="fill:none;stroke:#263238;stroke-linecap:round;stroke-linejoin:round;stroke-width:1.203545615328031px"></path><path d="M163.32,430.36s-5.43,3.51-7,8.52a1.92,1.92,0,0,0,1,2.31h0a1.87,1.87,0,0,0,1.91-.13c1.63-1.1,5.19-3.34,8.27-3.91a4.4,4.4,0,0,0,3.38-3,3.59,3.59,0,0,0-.43-3C168.41,428,166.45,428,163.32,430.36Z" style="fill:#fff;stroke:#263238;stroke-linecap:round;stroke-linejoin:round;stroke-width:1.203545615328031px"></path><path d="M147.15,423.68s-5.43,3.52-7.05,8.52a1.91,1.91,0,0,0,1,2.31h0a1.9,1.9,0,0,0,1.91-.12c1.63-1.11,5.19-3.34,8.27-3.92a4.39,4.39,0,0,0,3.38-3,3.59,3.59,0,0,0-.43-3C152.23,421.34,150.28,421.34,147.15,423.68Z" style="fill:#fff;stroke:#263238;stroke-linecap:round;stroke-linejoin:round;stroke-width:1.203545615328031px"></path><path d="M134.25,412.56s-5.43,3.51-7.06,8.52a1.92,1.92,0,0,0,1,2.31h0a1.9,1.9,0,0,0,1.91-.13c1.63-1.11,5.2-3.34,8.27-3.92a4.37,4.37,0,0,0,3.38-3,3.56,3.56,0,0,0-.43-3C139.33,410.21,137.37,410.21,134.25,412.56Z" style="fill:#fff;stroke:#263238;stroke-linecap:round;stroke-linejoin:round;stroke-width:1.203545615328031px"></path><path d="M265,311.41v70.75s20.72,14.86,30.1,18.76,24.23-5.47,33.22,2,5.87,19.15-5.08,20.32c0,0,0,6.26-5.47,9a14.11,14.11,0,0,1-10.95.4s-.78,9.38-12.11,8.6-14.08-9.78-20.33-18.77-10.16-17.2-19.54-18.37-15.25-3.13-15.25-14.46c0-7,7-7.43,7.82-14.46s0-61,0-61Z" style="fill:#fff"></path><g style="clip-path:url(#freepik--clip-path-3--inject-43)"><circle cx="256.85" cy="376.46" r="5.13" style="fill:#9FD4A5"></circle><path d="M247.73,341.67a5.13,5.13,0,1,0-.07-8.66C247.68,335.78,247.71,338.7,247.73,341.67Z" style="fill:#9FD4A5"></path><path d="M265,348.52a7.69,7.69,0,0,0,0,14.81Z" style="fill:#9FD4A5"></path><path d="M247.44,314.15s.15,10.25.25,22.39a56.6,56.6,0,0,0,15.26-.4s-2.79,41.77-2.23,47.34,25.62,20.06,32.87,21.73,19.93.78,26.73,4.45c4.16,2.25,6.15,8.18,7.06,12.47,7.47-3.3,8.71-12.86,1-19.25-9-7.43-23.84,1.95-33.22-2S265,382.16,265,382.16V311.41Z" style="opacity:0.2"></path></g><path d="M265,311.41v70.75s20.72,14.86,30.1,18.76,24.23-5.47,33.22,2,5.87,19.15-5.08,20.32c0,0,0,6.26-5.47,9a14.11,14.11,0,0,1-10.95.4s-.78,9.38-12.11,8.6-14.08-9.78-20.33-18.77-10.16-17.2-19.54-18.37-15.25-3.13-15.25-14.46c0-7,7-7.43,7.82-14.46s0-61,0-61Z" style="fill:none;stroke:#263238;stroke-linecap:round;stroke-linejoin:round;stroke-width:1.203545615328031px"></path><path d="M306.85,432.59s.39-13.69-16.41-19.55" style="fill:none;stroke:#263238;stroke-linecap:round;stroke-linejoin:round;stroke-width:1.203545615328031px"></path><path d="M323.27,423.2s0-10.94-18.37-15.24" style="fill:none;stroke:#263238;stroke-linecap:round;stroke-linejoin:round;stroke-width:1.203545615328031px"></path><path d="M305.09,430.36s5.43,3.51,7.05,8.52a1.93,1.93,0,0,1-.95,2.31h0a1.87,1.87,0,0,1-1.91-.13c-1.63-1.1-5.2-3.34-8.27-3.91a4.37,4.37,0,0,1-3.38-3,3.59,3.59,0,0,1,.42-3C300,428,302,428,305.09,430.36Z" style="fill:#fff;stroke:#263238;stroke-linecap:round;stroke-linejoin:round;stroke-width:1.203545615328031px"></path><path d="M321.26,423.68s5.43,3.52,7.05,8.52a1.91,1.91,0,0,1-.95,2.31h0a1.89,1.89,0,0,1-1.91-.12c-1.63-1.11-5.2-3.34-8.27-3.92a4.36,4.36,0,0,1-3.38-3,3.56,3.56,0,0,1,.43-3C316.18,421.34,318.13,421.34,321.26,423.68Z" style="fill:#fff;stroke:#263238;stroke-linecap:round;stroke-linejoin:round;stroke-width:1.203545615328031px"></path><path d="M334.17,412.56s5.43,3.51,7.05,8.52a1.93,1.93,0,0,1-1,2.31h0a1.91,1.91,0,0,1-1.92-.13c-1.63-1.11-5.19-3.34-8.27-3.92a4.34,4.34,0,0,1-3.37-3,3.55,3.55,0,0,1,.42-3C329.09,410.21,331,410.21,334.17,412.56Z" style="fill:#fff;stroke:#263238;stroke-linecap:round;stroke-linejoin:round;stroke-width:1.203545615328031px"></path><path d="M134.72,349.17s-.21-8.63,2.11-11.36,5,9.89,4.83,11.57S138.51,354,134.72,349.17Z" style="fill:#fff;stroke:#263238;stroke-linecap:round;stroke-linejoin:round;stroke-width:1.203545615328031px"></path><path d="M149.87,346.22s-.21-8.62,2.1-11.35,5.05,9.88,4.84,11.56S153.65,351.06,149.87,346.22Z" style="fill:#fff;stroke:#263238;stroke-linecap:round;stroke-linejoin:round;stroke-width:1.203545615328031px"></path><path d="M133.45,357.86s-2.74-12.52,3.92-13.31,12.14,22.71,12.14,22.71-4.7-25.06,3.52-25.84,9,22.71,9,24.67-7,10.57-17.62,12.92S133.45,357.86,133.45,357.86Z" style="fill:#fff;stroke:#263238;stroke-linecap:round;stroke-linejoin:round;stroke-width:1.203545615328031px"></path><path d="M124.84,355.06s-.21-8.63,2.1-11.36,5.05,9.89,4.84,11.57S128.62,359.9,124.84,355.06Z" style="fill:#fff;stroke:#263238;stroke-linecap:round;stroke-linejoin:round;stroke-width:1.203545615328031px"></path><path d="M165.17,241.59s-9.79,8.22-15.27,25.44-7.44,25.06-2,23.89,7.44-7.83,7.44-7.83-6.66,19.57-3.13,21.14,8.22-2,8.22-2S158.9,319.5,162,324.59s4.3,5.09,4.3,5.09V361s-9.39-2.35-17.22,1.56-8.62,9.79-8.62,9.79-3.52-18.79-11.35-21.53-7.83,14.48-3.53,24.27,17.62,14.1,18.8,14.1-2.35,3.13-2.35,3.13l10.57-2.74s-5.09,5.87-1.57,5.87S166,389.58,166,389.58s-3.91,4.7.78,4.7,11.36-7,11.36-7,0,3.52,4.3-.78,13.71-3.53,15.66-29,0-57.55,0-57.55S188.66,224.75,165.17,241.59Z" style="fill:#fff"></path><g style="clip-path:url(#freepik--clip-path-4--inject-43)"><circle cx="180.5" cy="300.11" r="12.11" transform="translate(-165.97 351.14) rotate(-67.35)" style="fill:#9FD4A5"></circle><path d="M161.18,379.66a12.11,12.11,0,0,0-12,10.82l3.5-.9s-5.09,5.87-1.57,5.87S166,389.58,166,389.58s-3.91,4.7.78,4.7c2.05,0,4.46-1.34,6.54-2.85A12.1,12.1,0,0,0,161.18,379.66Z" style="fill:#9FD4A5"></path><circle cx="182.86" cy="349.3" r="15.19" transform="translate(-209.72 385.82) rotate(-67.68)" style="fill:#9FD4A5"></circle><path d="M147.94,290.92c4.75-1,6.85-6.15,7.33-7.5A114.43,114.43,0,0,0,151.85,296a12.83,12.83,0,0,0-3.3-24.68C144.14,285.54,142.94,292,147.94,290.92Z" style="fill:#9FD4A5"></path><path d="M165.17,241.59s-5.12,4.32-10,13.22a86.36,86.36,0,0,0,6.43,32.31c11.14,26.18,26.18,33.42,26.18,33.42s3.34,31.19-2.79,47.9c-5.77,15.75-22.42,22.59-43,20.07a11.64,11.64,0,0,0,2.43.68c1.17,0-2.35,3.13-2.35,3.13l10.57-2.74s-5.09,5.87-1.57,5.87S166,389.58,166,389.58s-3.91,4.7.78,4.7,11.36-7,11.36-7,0,3.52,4.3-.78,13.71-3.53,15.66-29,0-57.55,0-57.55S188.66,224.75,165.17,241.59Z" style="opacity:0.2"></path></g><path d="M165.17,241.59s-9.79,8.22-15.27,25.44-7.44,25.06-2,23.89,7.44-7.83,7.44-7.83-6.66,19.57-3.13,21.14,8.22-2,8.22-2S158.9,319.5,162,324.59s4.3,5.09,4.3,5.09V361s-9.39-2.35-17.22,1.56-8.62,9.79-8.62,9.79-3.52-18.79-11.35-21.53-7.83,14.48-3.53,24.27,17.62,14.1,18.8,14.1-2.35,3.13-2.35,3.13l10.57-2.74s-5.09,5.87-1.57,5.87S166,389.58,166,389.58s-3.91,4.7.78,4.7,11.36-7,11.36-7,0,3.52,4.3-.78,13.71-3.53,15.66-29,0-57.55,0-57.55S188.66,224.75,165.17,241.59Z" style="fill:none;stroke:#263238;stroke-linecap:round;stroke-linejoin:round;stroke-width:1.203545615328031px"></path><path d="M171.58,202.78s-11.2,17.22-31.44,22.39-37.9,3.45-37.47,4.74,7.32,5.6,7.32,5.6-6.46-.44-5.59,1.72,6.89,12.06,27.13,17.22,32.73-21.53,36.6-33.16S175,201.05,171.58,202.78Z" style="fill:#fff"></path><g style="clip-path:url(#freepik--clip-path-5--inject-43)"><path d="M111.31,229.11a20.84,20.84,0,1,0,40.46-8.58,49.9,49.9,0,0,1-11.63,4.64A141.69,141.69,0,0,1,111.31,229.11Z" style="fill:#9FD4A5"></path></g><path d="M171.58,202.78s-11.2,17.22-31.44,22.39-37.9,3.45-37.47,4.74,7.32,5.6,7.32,5.6-6.46-.44-5.59,1.72,6.89,12.06,27.13,17.22,32.73-21.53,36.6-33.16S175,201.05,171.58,202.78Z" style="fill:none;stroke:#263238;stroke-linecap:round;stroke-linejoin:round;stroke-width:1.203545615328031px"></path><path d="M297.4,201.1s11.2,17.23,31.44,22.4,37.9,3.44,37.47,4.73-7.33,5.6-7.33,5.6,6.46-.43,5.6,1.72-6.89,12.06-27.13,17.23-32.73-21.53-36.6-33.16S294,199.38,297.4,201.1Z" style="fill:#fff"></path><g style="clip-path:url(#freepik--clip-path-6--inject-43)"><path d="M341.48,226a17.58,17.58,0,0,0,8.6,22.24c10.3-5.07,13.86-11.06,14.5-12.68.86-2.15-5.6-1.72-5.6-1.72s6.9-4.31,7.33-5.6C366.64,227.22,355.88,228.06,341.48,226Z" style="fill:#9FD4A5"></path><path d="M322.55,234.2c.49-4.12-.29-9.07-1.32-13.35A60,60,0,0,1,297.4,201.1c-3.44-1.72-.43,6.89,3.45,18.52s16.36,38.33,36.6,33.16C322.83,253,321.44,243.67,322.55,234.2Z" style="opacity:0.2"></path></g><path d="M297.4,201.1s11.2,17.23,31.44,22.4,37.9,3.44,37.47,4.73-7.33,5.6-7.33,5.6,6.46-.43,5.6,1.72-6.89,12.06-27.13,17.23-32.73-21.53-36.6-33.16S294,199.38,297.4,201.1Z" style="fill:none;stroke:#263238;stroke-linecap:round;stroke-linejoin:round;stroke-width:1.203545615328031px"></path><path d="M189.66,180.38s-13.78,2.59-21.1,0-2.15-7.75-5.17-11.62-12,3-12.92,15.5,13.35,19.38,28,20.67l17.22-24.55Z" style="fill:#9FD4A5;stroke:#263238;stroke-linecap:round;stroke-linejoin:round;stroke-width:1.203545615328031px"></path><path d="M173.15,181.33a20.17,20.17,0,0,1-4.44-.9,19.6,19.6,0,0,0-8.65,19.21,33.15,33.15,0,0,0,3.32,1.66C162.7,198.63,160.77,187.5,173.15,181.33Z" style="fill:#263238"></path><path d="M164.39,174.19c-6.32,1.43-10.89,4-13.66,7.78-.11.74-.2,1.5-.26,2.29a14.6,14.6,0,0,0,.48,4.86,12.07,12.07,0,0,1,1.61-4.5c2.17-3.53,6.24-6,12.13-7.41A7.58,7.58,0,0,1,164.39,174.19Z" style="fill:#263238"></path><path d="M282.33,180.38s13.79,2.59,21.11,0,2.15-7.75,5.16-11.62,12.06,3,12.92,15.5-13.35,19.38-28,20.67l-17.22-24.55Z" style="fill:#9FD4A5;stroke:#263238;stroke-linecap:round;stroke-linejoin:round;stroke-width:1.203545615328031px"></path><path d="M298.85,181.33a20.17,20.17,0,0,0,4.44-.9,19.6,19.6,0,0,1,8.65,19.21,33.15,33.15,0,0,1-3.32,1.66C309.29,198.63,311.23,187.5,298.85,181.33Z" style="fill:#263238"></path><path d="M307.61,174.19c6.31,1.43,10.89,4,13.66,7.78.11.74.2,1.5.25,2.29a14.6,14.6,0,0,1-.47,4.86,12.07,12.07,0,0,0-1.61-4.5c-2.17-3.53-6.25-6-12.13-7.41A7.58,7.58,0,0,0,307.61,174.19Z" style="fill:#263238"></path><ellipse cx="235.65" cy="242.41" rx="73.4" ry="82.73" style="fill:#fff"></ellipse><g style="clip-path:url(#freepik--clip-path-7--inject-43)"><path d="M200.39,180.14a10.89,10.89,0,0,0,9.93-15.41A71.12,71.12,0,0,0,191.85,176,10.9,10.9,0,0,0,200.39,180.14Z" style="fill:#9FD4A5"></path><path d="M199.75,298.19c0-8.86-6.32-16-14.11-16a13.55,13.55,0,0,0-11.08,6.12,79.33,79.33,0,0,0,19.78,22.53A16.87,16.87,0,0,0,199.75,298.19Z" style="fill:#9FD4A5"></path><ellipse cx="240.81" cy="312.94" rx="9.62" ry="8.34" style="fill:#9FD4A5"></ellipse><path d="M192.05,234.67c0-14.75-10.1-26.8-22.8-27.55a91.16,91.16,0,0,0-7,35.29,93.27,93.27,0,0,0,2.07,19.53,21.31,21.31,0,0,0,3.67.32C181.28,262.26,192.05,249.91,192.05,234.67Z" style="fill:#9FD4A5"></path><circle cx="294.06" cy="262.9" r="9.62" transform="translate(-61.71 433.25) rotate(-67.38)" style="fill:#9FD4A5"></circle><path d="M298.55,280.22a5.75,5.75,0,0,0,.9,3.07,89,89,0,0,0,3.85-8.74A5.77,5.77,0,0,0,298.55,280.22Z" style="fill:#9FD4A5"></path><path d="M295.1,290.89a18.92,18.92,0,0,0-25.18,24.68A77.13,77.13,0,0,0,295.1,290.89Z" style="fill:#9FD4A5"></path><path d="M290.57,187.55a24,24,0,0,0,17.28,40A87,87,0,0,0,290.57,187.55Z" style="fill:#9FD4A5"></path><path d="M276,173.33c5,7.29,12.63,21.18,18.11,44.16,8.92,37.32,1.67,52.91,1.67,52.91l-4.45-11.14S293,273.19,288,281.55s-8.66,14.83-10.46,18.55-1.8-5.19-1.8-5.19-4.14,11.95-7.36,13.22-12.69,6.28-12.69,6.28l.55-6.68s-13.92,5.57-21.72,5.57-27.3-2.23-37.88-8.92c-6-3.79-14.72-9.93-21.12-14.52,13.27,21.33,35.24,35.28,60.11,35.28,40.53,0,73.4-37,73.4-82.73C309.05,213.54,295.92,188.13,276,173.33Z" style="opacity:0.2"></path></g><ellipse cx="235.65" cy="242.41" rx="73.4" ry="82.73" style="fill:none;stroke:#263238;stroke-linecap:round;stroke-linejoin:round;stroke-width:1.203545615328031px"></ellipse><path d="M230.94,163.28s-.39-1.17-7.05-3.52-14.09.78-10.18-2.35,17.23-3.52,19.58-1.17-7.44-3.53-7.44-7.44,11.36-2,14.88,1.17a21.34,21.34,0,0,1,4.7,5.48s-.39-14.48,6.65-18,12.53,3.53,9.4,7.44-9.79,10.57-9.79,10.57,16.05-5.87,15.27.79-16.84,7-16.84,7" style="fill:#fff;stroke:#263238;stroke-linecap:round;stroke-linejoin:round;stroke-width:1.203545615328031px"></path><ellipse cx="237.4" cy="220.36" rx="20.55" ry="21.33" style="fill:#263238;stroke:#263238;stroke-linecap:round;stroke-linejoin:round;stroke-width:1.203545615328031px"></ellipse><circle cx="237.4" cy="218.29" r="20.55" style="fill:#9FD4A5;stroke:#263238;stroke-linecap:round;stroke-linejoin:round;stroke-width:1.203545615328031px"></circle><circle cx="237.4" cy="218.29" r="10.77" transform="translate(-65.72 108.15) rotate(-22.63)" style="fill:#263238;stroke:#263238;stroke-linecap:round;stroke-linejoin:round;stroke-width:1.203545615328031px"></circle><path d="M212.54,180.9s-11.35,2-12.92,6.66,7,5.48,7,5.48-10.18,8.61-5.48,11.74,13.7-8.61,13.7-8.61,10.57,8.22,21.53,8.22,21.93-8.61,21.93-8.61,9.39,10.57,12.92,8.61S265,189.91,265,189.91s9,2,1.57-5.09a15.6,15.6,0,0,0-15.66-3.92" style="fill:#fff;stroke:#263238;stroke-linecap:round;stroke-linejoin:round;stroke-width:1.203545615328031px"></path><path d="M209,244.33a44.74,44.74,0,0,0-13.31,12.92c-6.27,9-4.31,14.48-1.18,14.87s13.7-13.31,13.7-13.31-5.09,12.92,1.18,12.14,13.7-15.27,13.7-15.27-.39,9,4.31,8.61,10.18-16.05,10.18-16.05,2.74,15.66,7.44,15.66,5.08-9.79,5.08-9.79,5.49,17.23,10.18,13.71,1.57-14.88,1.57-14.88,4.31,23.1,10.18,18.79-2.74-22.7-9-29.36" style="fill:none;stroke:#263238;stroke-linecap:round;stroke-linejoin:round;stroke-width:1.203545615328031px"></path><path d="M260.61,291.31a6.12,6.12,0,0,1-5.38-3.2c-.29-.51-6.15-10.78-17.81-10.78s-20.65,11.15-20.73,11.26a6.13,6.13,0,0,1-9.69-7.5c.51-.65,12.62-16,30.42-16,19.13,0,28.21,16.5,28.58,17.21a6.13,6.13,0,0,1-5.39,9Z" style="fill:#263238"></path><g style="clip-path:url(#freepik--clip-path-8--inject-43)"><path d="M209.87,277.9l9.33,3.23-1.07-9.95A50.54,50.54,0,0,0,209.87,277.9Z" style="fill:#fff"></path><path d="M257.06,272l-.67,11.09,9.14-1.62A37.55,37.55,0,0,0,257.06,272Z" style="fill:#fff"></path><path d="M259.91,283.09l-6,3a21.27,21.27,0,0,1,1.35,2,6.12,6.12,0,0,0,5.38,3.2,6.2,6.2,0,0,0,1.75-.27Z" style="fill:#fff"></path><path d="M216.69,288.59a27.51,27.51,0,0,1,2-2.15L211,282.3l-2,7.95A6.12,6.12,0,0,0,216.69,288.59Z" style="fill:#fff"></path></g><path d="M260.61,291.31a6.12,6.12,0,0,1-5.38-3.2c-.29-.51-6.15-10.78-17.81-10.78s-20.65,11.15-20.73,11.26a6.13,6.13,0,0,1-9.69-7.5c.51-.65,12.62-16,30.42-16,19.13,0,28.21,16.5,28.58,17.21a6.13,6.13,0,0,1-5.39,9Z" style="fill:none;stroke:#263238;stroke-linecap:round;stroke-linejoin:round;stroke-width:1.203545615328031px"></path><path d="M234.55,212.56a6,6,0,1,1-6-6A6,6,0,0,1,234.55,212.56Z" style="fill:#fff"></path></g></svg>